<svg width="225" height="25" viewBox="0 0 225 25" fill="none" xmlns="http://www.w3.org/2000/svg">
<path d="M221 1C221.686 1 222.344 1.15078 222.974 1.45235C223.604 1.75087 224.098 2.18037 224.457 2.74086C224.819 3.30135 225 3.88773 225 4.5C225 5.10923 224.822 5.69104 224.467 6.24543C224.116 6.79678 223.623 7.22781 222.99 7.53851C222.359 7.84617 221.696 8 221 8C220.304 8 219.639 7.84617 219.005 7.53851C218.375 7.22781 217.883 6.79678 217.527 6.24543C217.176 5.69104 217 5.10923 217 4.5C217 3.88773 217.179 3.30135 217.538 2.74086C217.9 2.18037 218.396 1.75087 219.026 1.45235C219.656 1.15078 220.314 1 221 1ZM221.005 1.68538C220.455 1.68538 219.928 1.8057 219.423 2.04634C218.918 2.28699 218.52 2.63272 218.227 3.08355C217.938 3.53438 217.794 4.00653 217.794 4.5C217.794 4.99043 217.935 5.45801 218.217 5.90274C218.502 6.34748 218.899 6.69473 219.407 6.94452C219.916 7.1943 220.448 7.31919 221.005 7.31919C221.566 7.31919 222.098 7.1943 222.603 6.94452C223.111 6.69473 223.508 6.34748 223.794 5.90274C224.079 5.45801 224.222 4.99043 224.222 4.5C224.222 4.00653 224.076 3.53438 223.783 3.08355C223.494 2.63272 223.096 2.28699 222.587 2.04634C222.083 1.8057 221.555 1.68538 221.005 1.68538ZM219.193 6.37337V2.65862H220.055C220.862 2.65862 221.315 2.66166 221.413 2.66775C221.698 2.68908 221.919 2.73934 222.076 2.81854C222.236 2.89469 222.368 3.01349 222.473 3.17493C222.581 3.33333 222.634 3.51001 222.634 3.70496C222.634 3.97302 222.534 4.203 222.332 4.39491C222.133 4.58377 221.853 4.70104 221.491 4.74674C221.62 4.78938 221.719 4.8366 221.789 4.88838C221.858 4.93712 221.954 5.03155 222.076 5.17167C222.107 5.20822 222.211 5.35901 222.389 5.62402L222.89 6.37337H221.825L221.47 5.77023C221.23 5.3651 221.031 5.11075 220.875 5.00718C220.718 4.90057 220.52 4.84726 220.279 4.84726H220.055V6.37337H219.193ZM220.055 4.2624H220.405C220.903 4.2624 221.211 4.24565 221.329 4.21214C221.451 4.17863 221.547 4.12076 221.616 4.03851C221.686 3.95322 221.721 3.85727 221.721 3.75065C221.721 3.64708 221.686 3.5557 221.616 3.4765C221.55 3.39426 221.454 3.33638 221.329 3.30287C221.204 3.26632 220.896 3.24804 220.405 3.24804H220.055V4.2624Z" fill="black"/>
<path d="M0.15625 16.5469L4.65625 16.1094C4.92708 17.6198 5.47396 18.7292 6.29688 19.4375C7.13021 20.1458 8.25 20.5 9.65625 20.5C11.1458 20.5 12.2656 20.1875 13.0156 19.5625C13.776 18.9271 14.1562 18.1875 14.1562 17.3438C14.1562 16.8021 13.9948 16.3438 13.6719 15.9688C13.3594 15.5833 12.8073 15.25 12.0156 14.9688C11.474 14.7812 10.2396 14.4479 8.3125 13.9688C5.83333 13.3542 4.09375 12.599 3.09375 11.7031C1.6875 10.4427 0.984375 8.90625 0.984375 7.09375C0.984375 5.92708 1.3125 4.83854 1.96875 3.82812C2.63542 2.80729 3.58854 2.03125 4.82812 1.5C6.07812 0.96875 7.58333 0.703125 9.34375 0.703125C12.2188 0.703125 14.3802 1.33333 15.8281 2.59375C17.2865 3.85417 18.0521 5.53646 18.125 7.64062L13.5 7.84375C13.3021 6.66667 12.875 5.82292 12.2188 5.3125C11.5729 4.79167 10.599 4.53125 9.29688 4.53125C7.95312 4.53125 6.90104 4.80729 6.14062 5.35938C5.65104 5.71354 5.40625 6.1875 5.40625 6.78125C5.40625 7.32292 5.63542 7.78646 6.09375 8.17188C6.67708 8.66146 8.09375 9.17188 10.3438 9.70312C12.5938 10.2344 14.2552 10.7865 15.3281 11.3594C16.4115 11.9219 17.2552 12.6979 17.8594 13.6875C18.474 14.6667 18.7812 15.8802 18.7812 17.3281C18.7812 18.6406 18.4167 19.8698 17.6875 21.0156C16.9583 22.1615 15.9271 23.0156 14.5938 23.5781C13.2604 24.1302 11.599 24.4062 9.60938 24.4062C6.71354 24.4062 4.48958 23.7396 2.9375 22.4062C1.38542 21.0625 0.458333 19.1094 0.15625 16.5469Z" fill="black"/>
<path d="M37.1094 12.3125L32.7812 13.0938C32.6354 12.2292 32.3021 11.5781 31.7812 11.1406C31.2708 10.7031 30.6042 10.4844 29.7812 10.4844C28.6875 10.4844 27.8125 10.8646 27.1562 11.625C26.5104 12.375 26.1875 13.6354 26.1875 15.4062C26.1875 17.375 26.5156 18.7656 27.1719 19.5781C27.8385 20.3906 28.7292 20.7969 29.8438 20.7969C30.6771 20.7969 31.3594 20.5625 31.8906 20.0938C32.4219 19.6146 32.7969 18.7969 33.0156 17.6406L37.3281 18.375C36.8802 20.3542 36.0208 21.849 34.75 22.8594C33.4792 23.8698 31.776 24.375 29.6406 24.375C27.2135 24.375 25.276 23.6094 23.8281 22.0781C22.3906 20.5469 21.6719 18.4271 21.6719 15.7188C21.6719 12.9792 22.3958 10.849 23.8438 9.32812C25.2917 7.79688 27.25 7.03125 29.7188 7.03125C31.7396 7.03125 33.3438 7.46875 34.5312 8.34375C35.7292 9.20833 36.5885 10.5312 37.1094 12.3125Z" fill="black"/>
<path d="M44.8281 1.09375V9.51562C46.2448 7.85938 47.9375 7.03125 49.9062 7.03125C50.9167 7.03125 51.8281 7.21875 52.6406 7.59375C53.4531 7.96875 54.0625 8.44792 54.4688 9.03125C54.8854 9.61458 55.1667 10.2604 55.3125 10.9688C55.4688 11.6771 55.5469 12.776 55.5469 14.2656V24H51.1562V15.2344C51.1562 13.4948 51.0729 12.3906 50.9062 11.9219C50.7396 11.4531 50.4427 11.0833 50.0156 10.8125C49.599 10.5312 49.0729 10.3906 48.4375 10.3906C47.7083 10.3906 47.0573 10.5677 46.4844 10.9219C45.9115 11.276 45.4896 11.8125 45.2188 12.5312C44.9583 13.2396 44.8281 14.2917 44.8281 15.6875V24H40.4375V1.09375H44.8281Z" fill="black"/>
<path d="M63.1094 24L57.8594 7.40625H62.125L65.2344 18.2812L68.0938 7.40625H72.3281L75.0938 18.2812L78.2656 7.40625H82.5938L77.2656 24H73.0469L70.1875 13.3281L67.375 24H63.1094Z" fill="black"/>
<path d="M88.2031 12.4688L84.2188 11.75C84.6667 10.1458 85.4375 8.95833 86.5312 8.1875C87.625 7.41667 89.25 7.03125 91.4062 7.03125C93.3646 7.03125 94.8229 7.26562 95.7812 7.73438C96.7396 8.19271 97.4115 8.78125 97.7969 9.5C98.1927 10.2083 98.3906 11.5156 98.3906 13.4219L98.3438 18.5469C98.3438 20.0052 98.4115 21.0833 98.5469 21.7812C98.6927 22.4688 98.9583 23.2083 99.3438 24H95C94.8854 23.7083 94.7448 23.276 94.5781 22.7031C94.5052 22.4427 94.4531 22.2708 94.4219 22.1875C93.6719 22.9167 92.8698 23.4635 92.0156 23.8281C91.1615 24.1927 90.25 24.375 89.2812 24.375C87.5729 24.375 86.224 23.9115 85.2344 22.9844C84.2552 22.0573 83.7656 20.8854 83.7656 19.4688C83.7656 18.5312 83.9896 17.6979 84.4375 16.9688C84.8854 16.2292 85.5104 15.6667 86.3125 15.2812C87.125 14.8854 88.2917 14.5417 89.8125 14.25C91.8646 13.8646 93.2865 13.5052 94.0781 13.1719V12.7344C94.0781 11.8906 93.8698 11.2917 93.4531 10.9375C93.0365 10.5729 92.25 10.3906 91.0938 10.3906C90.3125 10.3906 89.7031 10.5469 89.2656 10.8594C88.8281 11.1615 88.474 11.6979 88.2031 12.4688ZM94.0781 16.0312C93.5156 16.2188 92.625 16.4427 91.4062 16.7031C90.1875 16.9635 89.3906 17.2188 89.0156 17.4688C88.4427 17.875 88.1562 18.3906 88.1562 19.0156C88.1562 19.6302 88.3854 20.1615 88.8438 20.6094C89.3021 21.0573 89.8854 21.2812 90.5938 21.2812C91.3854 21.2812 92.1406 21.0208 92.8594 20.5C93.3906 20.1042 93.7396 19.6198 93.9062 19.0469C94.0208 18.6719 94.0781 17.9583 94.0781 16.9062V16.0312Z" fill="black"/>
<path d="M106.938 24H102.547V7.40625H106.625V9.76562C107.323 8.65104 107.948 7.91667 108.5 7.5625C109.062 7.20833 109.698 7.03125 110.406 7.03125C111.406 7.03125 112.37 7.30729 113.297 7.85938L111.938 11.6875C111.198 11.2083 110.51 10.9688 109.875 10.9688C109.26 10.9688 108.74 11.1406 108.312 11.4844C107.885 11.8177 107.547 12.4271 107.297 13.3125C107.057 14.1979 106.938 16.0521 106.938 18.875V24Z" fill="black"/>
<path d="M113.438 24V20.5781L119.656 13.4375C120.677 12.2708 121.432 11.4427 121.922 10.9531C121.411 10.9844 120.74 11.0052 119.906 11.0156L114.047 11.0469V7.40625H127.766V10.5156L121.422 17.8281L119.188 20.25C120.406 20.1771 121.161 20.1406 121.453 20.1406H128.25V24H113.438Z" fill="black"/>
<path d="M136.234 20.7031V14.75H130.234V10.6406H136.234V4.6875H140.234V10.6406H146.25V14.75H140.234V20.7031H136.234Z" fill="black"/>
<path d="M149.859 24V1.09375H156.781L160.938 16.7188L165.047 1.09375H171.984V24H167.688V5.96875L163.141 24H158.688L154.156 5.96875V24H149.859Z" fill="black"/>
<path d="M179.828 12.4688L175.844 11.75C176.292 10.1458 177.062 8.95833 178.156 8.1875C179.25 7.41667 180.875 7.03125 183.031 7.03125C184.99 7.03125 186.448 7.26562 187.406 7.73438C188.365 8.19271 189.036 8.78125 189.422 9.5C189.818 10.2083 190.016 11.5156 190.016 13.4219L189.969 18.5469C189.969 20.0052 190.036 21.0833 190.172 21.7812C190.318 22.4688 190.583 23.2083 190.969 24H186.625C186.51 23.7083 186.37 23.276 186.203 22.7031C186.13 22.4427 186.078 22.2708 186.047 22.1875C185.297 22.9167 184.495 23.4635 183.641 23.8281C182.786 24.1927 181.875 24.375 180.906 24.375C179.198 24.375 177.849 23.9115 176.859 22.9844C175.88 22.0573 175.391 20.8854 175.391 19.4688C175.391 18.5312 175.615 17.6979 176.062 16.9688C176.51 16.2292 177.135 15.6667 177.938 15.2812C178.75 14.8854 179.917 14.5417 181.438 14.25C183.49 13.8646 184.911 13.5052 185.703 13.1719V12.7344C185.703 11.8906 185.495 11.2917 185.078 10.9375C184.661 10.5729 183.875 10.3906 182.719 10.3906C181.938 10.3906 181.328 10.5469 180.891 10.8594C180.453 11.1615 180.099 11.6979 179.828 12.4688ZM185.703 16.0312C185.141 16.2188 184.25 16.4427 183.031 16.7031C181.812 16.9635 181.016 17.2188 180.641 17.4688C180.068 17.875 179.781 18.3906 179.781 19.0156C179.781 19.6302 180.01 20.1615 180.469 20.6094C180.927 21.0573 181.51 21.2812 182.219 21.2812C183.01 21.2812 183.766 21.0208 184.484 20.5C185.016 20.1042 185.365 19.6198 185.531 19.0469C185.646 18.6719 185.703 17.9583 185.703 16.9062V16.0312Z" fill="black"/>
<path d="M201.969 7.40625V10.9062H198.969V17.5938C198.969 18.9479 198.995 19.7396 199.047 19.9688C199.109 20.1875 199.24 20.3698 199.438 20.5156C199.646 20.6615 199.896 20.7344 200.188 20.7344C200.594 20.7344 201.182 20.5938 201.953 20.3125L202.328 23.7188C201.307 24.1562 200.151 24.375 198.859 24.375C198.068 24.375 197.354 24.2448 196.719 23.9844C196.083 23.7135 195.615 23.3698 195.312 22.9531C195.021 22.526 194.818 21.9531 194.703 21.2344C194.609 20.724 194.562 19.6927 194.562 18.1406V10.9062H192.547V7.40625H194.562V4.10938L198.969 1.54688V7.40625H201.969Z" fill="black"/>
<path d="M212.625 7.40625V10.9062H209.625V17.5938C209.625 18.9479 209.651 19.7396 209.703 19.9688C209.766 20.1875 209.896 20.3698 210.094 20.5156C210.302 20.6615 210.552 20.7344 210.844 20.7344C211.25 20.7344 211.839 20.5938 212.609 20.3125L212.984 23.7188C211.964 24.1562 210.807 24.375 209.516 24.375C208.724 24.375 208.01 24.2448 207.375 23.9844C206.74 23.7135 206.271 23.3698 205.969 22.9531C205.677 22.526 205.474 21.9531 205.359 21.2344C205.266 20.724 205.219 19.6927 205.219 18.1406V10.9062H203.203V7.40625H205.219V4.10938L209.625 1.54688V7.40625H212.625Z" fill="black"/>
</svg>
