<svg width="32" height="32" viewBox="0 0 32 32" fill="none" xmlns="http://www.w3.org/2000/svg">
<path d="M13.8037 1.81963L12.8939 0L11.9841 1.81963L10.1644 2.04708L11.682 3.33538L11.0743 5.45889L12.8939 4.24701L14.7135 5.45889L14.1058 3.33538L15.6233 2.04708L13.8037 1.81963ZM28.9685 21.2278L27.4509 18.1963L25.9334 21.2278L22.9019 21.6081L25.4293 23.7571L24.4194 27.2944L27.4509 25.2728L30.4824 27.2944L29.4725 23.7571L32 21.6081L28.9685 21.2278ZM5.91925 6.06482L4.70556 3.63926L3.49187 6.06482L1.0663 6.3687L3.08791 8.08643L2.27999 10.9178L4.70556 9.30012L7.13113 10.9178L6.32321 8.08643L8.34482 6.3687L5.91925 6.06482ZM0 25.4748C0 26.4465 0.378483 27.3599 1.0663 28.0478L3.95223 30.9337C4.64005 31.6215 5.55351 32 6.52519 32C7.49687 32 8.41033 31.6215 9.09815 30.9337L30.1804 9.85147C30.8682 9.16365 31.2467 8.2502 31.2467 7.27852C31.2467 6.30683 30.8682 5.39338 30.1804 4.70556L27.2944 1.81963C25.9188 0.44399 23.5242 0.44399 22.1485 1.81963L1.0663 22.9019C0.378483 23.5897 0 24.5031 0 25.4748ZM24.7215 4.39258L27.6074 7.27852L21.0822 13.8037L18.1963 10.9178L24.7215 4.39258Z" fill="#848484"/>
</svg>
