<svg width="32" height="34" viewBox="0 0 32 34" fill="none" xmlns="http://www.w3.org/2000/svg">
<path d="M16 0C14.2419 0 12.5234 0.521324 11.0616 1.49805C9.59983 2.47477 8.46052 3.86303 7.78774 5.48726C7.11496 7.11149 6.93893 8.89875 7.28191 10.623C7.62489 12.3473 8.47147 13.9311 9.71461 15.1743C10.9577 16.4174 12.5416 17.264 14.2659 17.607C15.9901 17.95 17.7774 17.7739 19.4016 17.1012C21.0259 16.4284 22.4141 15.2891 23.3908 13.8273C24.3676 12.3655 24.8889 10.6469 24.8889 8.88889C24.8889 6.53141 23.9524 4.27049 22.2854 2.6035C20.6184 0.936505 18.3575 0 16 0ZM16 14.2222C14.9452 14.2222 13.914 13.9094 13.037 13.3234C12.1599 12.7374 11.4763 11.9044 11.0726 10.9299C10.669 9.95533 10.5634 8.88297 10.7691 7.84841C10.9749 6.81384 11.4829 5.86353 12.2288 5.11765C12.9746 4.37177 13.925 3.86382 14.9595 3.65803C15.9941 3.45225 17.0664 3.55786 18.041 3.96153C19.0155 4.3652 19.8485 5.04879 20.4345 5.92585C21.0205 6.80291 21.3333 7.83406 21.3333 8.88889C21.3333 10.3034 20.7714 11.6599 19.7712 12.6601C18.771 13.6603 17.4145 14.2222 16 14.2222ZM32 33.7778V32C32 28.6995 30.6889 25.5342 28.3551 23.2004C26.0213 20.8667 22.856 19.5556 19.5556 19.5556H12.4444C9.14397 19.5556 5.97868 20.8667 3.64489 23.2004C1.31111 25.5342 0 28.6995 0 32V33.7778H3.55556V32C3.55556 29.6425 4.49206 27.3816 6.15905 25.7146C7.82604 24.0476 10.087 23.1111 12.4444 23.1111H19.5556C21.913 23.1111 24.174 24.0476 25.8409 25.7146C27.5079 27.3816 28.4444 29.6425 28.4444 32V33.7778H32Z" fill="black"/>
</svg>
