<svg width="24" height="24" viewBox="0 0 24 24" fill="none" xmlns="http://www.w3.org/2000/svg">
<path d="M21.43 0.57H2.57C1.46543 0.57 0.57 1.46543 0.57 2.57V21.43C0.57 22.5346 1.46543 23.43 2.57 23.43H21.43C22.5346 23.43 23.43 22.5346 23.43 21.43V2.57C23.43 1.46543 22.5346 0.57 21.43 0.57Z" fill="#7AAF30"/>
<path d="M12.138 9.094C10.9543 9.09127 9.78287 9.33441 8.698 9.808L7.37 7.52C7.32006 7.43258 7.23762 7.36841 7.14062 7.34144C7.04362 7.31448 6.93989 7.32689 6.852 7.376C6.80852 7.40054 6.77029 7.43341 6.73952 7.47273C6.70875 7.51205 6.68602 7.55705 6.67265 7.60516C6.65928 7.65326 6.65552 7.70353 6.66158 7.7531C6.66765 7.80266 6.68342 7.85054 6.708 7.894L8.009 10.144C6.84942 10.7941 5.86785 11.7198 5.15101 12.8394C4.43418 13.9589 4.00418 15.2378 3.899 16.563L3.89 16.671H20.364L20.354 16.563C20.2522 15.2393 19.8245 13.9614 19.1092 12.843C18.3938 11.7246 17.413 10.8005 16.254 10.153L17.56 7.9C17.5846 7.85653 17.6004 7.80864 17.6066 7.75906C17.6127 7.70948 17.609 7.65918 17.5956 7.61103C17.5823 7.56288 17.5596 7.51783 17.5289 7.47845C17.4982 7.43906 17.46 7.40612 17.4165 7.3815C17.373 7.35688 17.3251 7.34106 17.2756 7.33494C17.226 7.32883 17.1757 7.33254 17.1275 7.34586C17.0794 7.35919 17.0343 7.38187 16.9949 7.4126C16.9556 7.44334 16.9226 7.48153 16.898 7.525L15.57 9.814C14.4891 9.33483 13.3193 9.08914 12.137 9.093L12.138 9.094ZM15.875 13.003C16.0287 13.003 16.176 13.064 16.2848 13.1725C16.3935 13.2811 16.4547 13.4283 16.455 13.582C16.455 13.6581 16.44 13.7334 16.4108 13.8037C16.3816 13.8739 16.3389 13.9377 16.285 13.9914C16.2311 14.0451 16.1672 14.0876 16.0968 14.1166C16.0264 14.1455 15.9511 14.1603 15.875 14.16C15.7607 14.1596 15.6491 14.1254 15.5542 14.0617C15.4593 13.9981 15.3853 13.9079 15.3415 13.8023C15.2977 13.6968 15.2861 13.5806 15.308 13.4685C15.33 13.3564 15.3846 13.2532 15.465 13.172C15.5739 13.0636 15.7213 13.0028 15.875 13.003ZM8.395 13.003C8.54865 13.003 8.69603 13.064 8.80477 13.1725C8.91351 13.2811 8.97473 13.4283 8.975 13.582C8.975 13.6581 8.95998 13.7334 8.93081 13.8037C8.90164 13.8739 8.85889 13.9377 8.805 13.9914C8.75112 14.0451 8.68716 14.0876 8.6168 14.1166C8.54645 14.1455 8.47107 14.1603 8.395 14.16H8.394C8.24026 14.1596 8.09291 14.0985 7.984 13.99C7.90299 13.9091 7.84782 13.806 7.8255 13.6937C7.80318 13.5814 7.81471 13.465 7.85863 13.3593C7.90255 13.2535 7.97688 13.1632 8.0722 13.0998C8.16751 13.0364 8.27951 13.0027 8.394 13.003H8.395Z" fill="white"/>
<path d="M12.138 9.094C10.9543 9.09127 9.78287 9.33441 8.698 9.808L7.37 7.52C7.32006 7.43258 7.23762 7.36841 7.14062 7.34144C7.04362 7.31448 6.93989 7.32689 6.852 7.376C6.80852 7.40054 6.77029 7.43341 6.73952 7.47273C6.70875 7.51205 6.68602 7.55705 6.67265 7.60516C6.65928 7.65326 6.65552 7.70353 6.66158 7.7531C6.66765 7.80266 6.68342 7.85054 6.708 7.894L8.009 10.144C6.84942 10.7941 5.86785 11.7198 5.15101 12.8394C4.43418 13.9589 4.00418 15.2378 3.899 16.563L3.89 16.671H20.364L20.354 16.563C20.2522 15.2393 19.8245 13.9614 19.1092 12.843C18.3938 11.7246 17.413 10.8005 16.254 10.153L17.56 7.9C17.5846 7.85653 17.6004 7.80864 17.6066 7.75906C17.6127 7.70948 17.609 7.65918 17.5956 7.61103C17.5823 7.56288 17.5596 7.51783 17.5289 7.47845C17.4982 7.43906 17.46 7.40612 17.4165 7.3815C17.373 7.35688 17.3251 7.34106 17.2756 7.33494C17.226 7.32883 17.1757 7.33254 17.1275 7.34586C17.0794 7.35919 17.0343 7.38187 16.9949 7.4126C16.9556 7.44334 16.9226 7.48153 16.898 7.525L15.57 9.814C14.4891 9.33483 13.3193 9.08914 12.137 9.093L12.138 9.094ZM12.138 9.094V9.194M15.875 13.003C16.0287 13.003 16.176 13.064 16.2848 13.1725C16.3935 13.2811 16.4547 13.4283 16.455 13.582C16.455 13.6581 16.44 13.7334 16.4108 13.8037C16.3816 13.8739 16.3389 13.9377 16.285 13.9914C16.2311 14.0451 16.1672 14.0876 16.0968 14.1166C16.0264 14.1455 15.9511 14.1603 15.875 14.16C15.7607 14.1596 15.6491 14.1254 15.5542 14.0617C15.4593 13.9981 15.3853 13.9079 15.3415 13.8023C15.2977 13.6968 15.2861 13.5806 15.308 13.4685C15.33 13.3564 15.3846 13.2532 15.465 13.172C15.5739 13.0636 15.7213 13.0028 15.875 13.003ZM8.395 13.003C8.54865 13.003 8.69603 13.064 8.80477 13.1725C8.91351 13.2811 8.97473 13.4283 8.975 13.582C8.975 13.6581 8.95998 13.7334 8.93081 13.8037C8.90164 13.8739 8.85889 13.9377 8.805 13.9914C8.75112 14.0451 8.68716 14.0876 8.6168 14.1166C8.54645 14.1455 8.47107 14.1603 8.395 14.16H8.394C8.24026 14.1596 8.09291 14.0985 7.984 13.99C7.90299 13.9091 7.84782 13.806 7.8255 13.6937C7.80318 13.5814 7.81471 13.465 7.85863 13.3593C7.90255 13.2535 7.97688 13.1632 8.0722 13.0998C8.16751 13.0364 8.27951 13.0027 8.394 13.003H8.395Z" stroke="#FAFAFA" stroke-width="0.2"/>
</svg>
