<svg width="23" height="23" viewBox="0 0 23 23" fill="none" xmlns="http://www.w3.org/2000/svg">
<path d="M7.86932 12.9025C7.67594 12.4351 7.57661 11.9341 7.57701 11.4282C7.57635 10.9222 7.6755 10.4221 7.86879 9.95454C8.06208 9.48696 8.34569 9.06211 8.70341 8.7043C9.06113 8.34649 9.48591 8.06276 9.95344 7.86935C10.421 7.67594 10.9221 7.57666 11.428 7.57719C11.9339 7.57693 12.4348 7.67635 12.9022 7.86977C13.3696 8.0632 13.7943 8.34684 14.152 8.70447C14.5097 9.06211 14.7935 9.48674 14.987 9.95409C15.1806 10.4214 15.2801 10.9223 15.28 11.4282C15.2803 11.9341 15.1808 12.4351 14.9873 12.9026C14.7938 13.3701 14.5101 13.7948 14.1524 14.1525C13.7946 14.5103 13.3699 14.794 12.9024 14.9875C12.435 15.181 11.9339 15.2804 11.428 15.2802C10.9221 15.2804 10.4212 15.181 9.95375 14.9875C9.48634 14.794 9.06166 14.5102 8.704 14.1525C8.34633 13.7947 8.0627 13.37 7.86932 12.9025Z" fill="#FAFAFA"/>
<path d="M15.651 7.65119L22.087 7.31819C24.092 12.4742 22.087 18.4672 17.142 21.3242C15.2186 22.4392 13.0107 22.9662 10.791 22.8402L15.955 14.8952C17.425 12.6372 17.398 9.69219 15.651 7.65119Z" fill="#FAFAFA"/>
<path d="M1.86201 5.16819L6.16201 13.6242C7.37301 16.0052 9.93601 17.4612 12.59 16.9612L9.65401 22.7142C4.18401 21.8762 7.50691e-06 17.1432 7.50691e-06 11.4282C-0.00254255 9.20467 0.644641 7.02885 1.86201 5.16819Z" fill="#FAFAFA"/>
<path d="M21.626 6.27819L12.164 5.78019C9.48901 5.62419 6.94001 7.12919 6.06001 9.65419L2.53801 4.24519C3.60483 2.92449 4.95264 1.8582 6.48337 1.12389C8.0141 0.38957 9.68927 0.00569809 11.387 0.000189637C13.4055 -0.0114924 15.3904 0.516749 17.136 1.53019C19.0624 2.64272 20.6227 4.29269 21.626 6.27819Z" fill="#FAFAFA"/>
</svg>
