<svg width="23" height="23" viewBox="0 0 23 23" fill="none" xmlns="http://www.w3.org/2000/svg">
<path d="M19.102 4.862C19.864 5.261 20.842 6.508 21.322 7.665H21.324C22.02 9.332 22.263 11.33 22.043 13.228C22.027 13.371 22.013 13.514 21.993 13.656C21.102 18.878 16.553 22.857 11.076 22.857C4.96 22.857 0 17.898 0 11.781V11.726L0.00194228 11.6959C0.00928235 11.5824 0.0164852 11.471 0.0219994 11.357L0.026001 11.323C0.0383146 11.1105 0.0596665 10.8987 0.0900002 10.688C0.100233 10.6014 0.112569 10.515 0.126999 10.429C0.173999 10.086 0.233999 9.745 0.306999 9.406C0.575663 8.20232 1.08003 7.06375 1.791 6.056C2.101 5.615 2.448 5.2 2.828 4.816C3.159 4.474 3.523 4.166 3.909 3.888C3.951 3.858 4.274 3.666 4.278 3.692C4.256 4.076 4.222 5.909 4.662 6.466H4.668C5.31 5.744 6.193 4.924 7.332 4.406C7.09944 5.29436 7.10946 6.22883 7.361 7.112C7.4624 7.17741 7.55929 7.24958 7.651 7.328C7.82 7.472 8.008 7.663 8.41 8.058C9.161 8.798 11.088 9.564 11.096 9.654C11.078 9.928 10.105 10.88 9.762 10.88C6.614 10.88 6.104 12.784 6.104 12.784C6.242 14.388 7.358 15.711 8.711 16.41C9.31954 16.7131 9.98564 16.8832 10.665 16.909C16.183 17.169 17.254 10.312 13.272 8.322C14.289 8.142 15.349 8.555 15.939 8.967C15.4713 8.14855 14.8061 7.46027 14.004 6.965C13.959 6.935 13.914 6.909 13.869 6.882C13.7972 6.83984 13.7242 6.79982 13.65 6.762L13.549 6.714C13.474 6.676 13.399 6.638 13.323 6.604C13.275 6.584 13.227 6.562 13.177 6.544C13.117 6.518 13.053 6.495 12.993 6.472C12.907 6.441 12.824 6.412 12.737 6.386L12.647 6.36C12.0426 6.18363 11.4126 6.11126 10.784 6.146L10.719 6.154C10.0564 6.19863 9.40799 6.3665 8.807 6.649C8.77178 6.66515 8.73356 6.67377 8.69482 6.67428C8.65607 6.6748 8.61764 6.66721 8.582 6.652C8.53253 6.62989 8.49037 6.59418 8.46041 6.54903C8.43045 6.50388 8.41393 6.45115 8.41278 6.39698C8.41163 6.34281 8.42588 6.28943 8.4539 6.24305C8.48191 6.19667 8.52252 6.1592 8.571 6.135C9.25979 5.81074 10.0041 5.62068 10.764 5.575C11.027 3.97 12.045 1.443 14.51 0C14.506 0.004 14.506 0.0079999 14.506 0.0079999C14.506 0.0079999 14.511 0.00399995 14.514 0.00399995L14.518 0H14.54C14.556 0.004 14.566 0.016 14.566 0.03C14.6026 0.182511 14.6569 0.330192 14.728 0.47C14.769 0.55 14.806 0.625 14.852 0.7C14.9369 0.84239 15.0236 0.983734 15.112 1.124C16.848 3.864 18.97 5.121 20.224 8.244L20.221 8.225C20.086 7.312 19.725 6.082 19.102 4.862Z" fill="#FAFAFA"/>
</svg>
