<svg width="18" height="18" viewBox="0 0 18 18" fill="none" xmlns="http://www.w3.org/2000/svg">
<path fill-rule="evenodd" clip-rule="evenodd" d="M17.64 9.20401C17.64 8.56601 17.583 7.95301 17.476 7.36401H9V10.845H13.844C13.7438 11.3956 13.5329 11.9202 13.2242 12.387C12.9155 12.8538 12.5154 13.2532 12.048 13.561V15.82H14.956C16.658 14.253 17.64 11.945 17.64 9.20401Z" fill="#4285F4"/>
<path fill-rule="evenodd" clip-rule="evenodd" d="M9 18C11.43 18 13.467 17.194 14.956 15.82L12.048 13.561C11.242 14.101 10.211 14.421 9 14.421C6.656 14.421 4.672 12.837 3.964 10.71H0.957001V13.042C1.70596 14.533 2.85483 15.7863 4.2752 16.6619C5.69556 17.5375 7.33145 18.0008 9 18Z" fill="#34A853"/>
<path fill-rule="evenodd" clip-rule="evenodd" d="M3.964 10.71C3.77872 10.1589 3.6835 9.58146 3.682 9.00001C3.682 8.40701 3.784 7.83001 3.964 7.29001V4.95801H0.957001C0.327056 6.21224 -0.00067966 7.59647 1.05824e-06 9.00001C1.05824e-06 10.452 0.348001 11.827 0.957001 13.042L3.964 10.71Z" fill="#FBBC05"/>
<path fill-rule="evenodd" clip-rule="evenodd" d="M9 3.58C10.321 3.58 11.508 4.034 12.44 4.925L15.022 2.345C13.463 0.891001 11.426 9.72831e-07 9 9.72831e-07C7.33145 -0.000774864 5.69556 0.462514 4.2752 1.33808C2.85483 2.21365 1.70596 3.46699 0.957001 4.958L3.964 7.29C4.672 5.163 6.656 3.58 9 3.58Z" fill="#EA4335"/>
</svg>
