<svg width="23" height="23" viewBox="0 0 23 23" fill="none" xmlns="http://www.w3.org/2000/svg">
<path d="M1.43 1.85999H21.43V21.86H1.43V1.85999Z" fill="#FAFAFA"/>
<path d="M20.41 0H2.45C1.80022 0 1.17705 0.258126 0.717589 0.71759C0.258125 1.17705 0 1.80022 0 2.45V20.41C0 21.0598 0.258125 21.6829 0.717589 22.1424C1.17705 22.6019 1.80022 22.86 2.45 22.86H20.41C21.0598 22.86 21.6829 22.6019 22.1424 22.1424C22.6019 21.6829 22.86 21.0598 22.86 20.41V2.45C22.86 1.80022 22.6019 1.17705 22.1424 0.71759C21.6829 0.258126 21.0598 0 20.41 0ZM6.48 17.987C6.41669 18.1097 6.32913 18.2182 6.22263 18.3061C6.11613 18.3939 5.9929 18.4592 5.86042 18.498C5.72794 18.5369 5.58896 18.5484 5.45189 18.5319C5.31482 18.5154 5.18253 18.4713 5.06302 18.4022C4.94351 18.3331 4.83927 18.2405 4.75661 18.1299C4.67396 18.0193 4.61461 17.8931 4.58217 17.7589C4.54973 17.6247 4.54486 17.4854 4.56786 17.3492C4.59087 17.2131 4.64126 17.0831 4.716 16.967L5.446 15.706C6.266 15.456 6.941 15.649 7.466 16.286L6.481 17.986L6.48 17.987ZM13.568 15.237H4.286C3.725 15.237 3.266 14.777 3.266 14.217C3.266 13.655 3.726 13.196 4.286 13.196H6.889L10.226 7.42L9.18 5.614C9.04528 5.37979 9.00878 5.10177 9.07849 4.84072C9.1482 4.57968 9.31845 4.35686 9.552 4.221C9.78621 4.08628 10.0642 4.04978 10.3253 4.11949C10.5863 4.1892 10.8091 4.35945 10.945 4.593L11.399 5.379L11.853 4.593C11.92 4.47711 12.0091 4.37554 12.1153 4.2941C12.2216 4.21266 12.3428 4.15294 12.4721 4.11835C12.6014 4.08377 12.7363 4.07498 12.869 4.09251C13.0017 4.11003 13.1296 4.15353 13.2455 4.2205C13.3614 4.28748 13.463 4.37662 13.5444 4.48285C13.6258 4.58907 13.6856 4.7103 13.7201 4.8396C13.7547 4.96891 13.7635 5.10376 13.746 5.23646C13.7285 5.36916 13.685 5.49711 13.618 5.613L9.24 13.197H12.409C13.439 13.197 14.016 14.406 13.567 15.237H13.568ZM18.574 15.237H17.094L18.094 16.967C18.374 17.457 18.205 18.08 17.721 18.36C17.231 18.64 16.609 18.472 16.329 17.987C14.65 15.084 13.394 12.9 12.553 11.451C11.7 9.971 12.308 8.491 12.915 7.992C13.584 9.151 14.584 10.885 15.92 13.197H18.574C18.8445 13.197 19.104 13.3045 19.2952 13.4958C19.4865 13.687 19.594 13.9465 19.594 14.217C19.594 14.4875 19.4865 14.747 19.2952 14.9382C19.104 15.1295 18.8445 15.237 18.574 15.237Z" fill="#FAFAFA"/>
<path d="M20.41 0H2.45C1.80022 0 1.17705 0.258126 0.717589 0.71759C0.258125 1.17705 0 1.80022 0 2.45V20.41C0 21.0598 0.258125 21.6829 0.717589 22.1424C1.17705 22.6019 1.80022 22.86 2.45 22.86H20.41C21.0598 22.86 21.6829 22.6019 22.1424 22.1424C22.6019 21.6829 22.86 21.0598 22.86 20.41V2.45C22.86 1.80022 22.6019 1.17705 22.1424 0.71759C21.6829 0.258126 21.0598 0 20.41 0ZM6.48 17.987C6.41669 18.1097 6.32913 18.2182 6.22263 18.3061C6.11613 18.3939 5.9929 18.4592 5.86042 18.498C5.72794 18.5369 5.58896 18.5484 5.45189 18.5319C5.31482 18.5154 5.18253 18.4713 5.06302 18.4022C4.94351 18.3331 4.83927 18.2405 4.75661 18.1299C4.67396 18.0193 4.61461 17.8931 4.58217 17.7589C4.54973 17.6247 4.54486 17.4854 4.56786 17.3492C4.59087 17.2131 4.64126 17.0831 4.716 16.967L5.446 15.706C6.266 15.456 6.941 15.649 7.466 16.286L6.481 17.986L6.48 17.987ZM13.568 15.237H4.286C3.725 15.237 3.266 14.777 3.266 14.217C3.266 13.655 3.726 13.196 4.286 13.196H6.889L10.226 7.42L9.18 5.614C9.04528 5.37979 9.00878 5.10177 9.07849 4.84072C9.1482 4.57968 9.31845 4.35686 9.552 4.221C9.78621 4.08628 10.0642 4.04978 10.3253 4.11949C10.5863 4.1892 10.8091 4.35945 10.945 4.593L11.399 5.379L11.853 4.593C11.92 4.47711 12.0091 4.37554 12.1153 4.2941C12.2216 4.21266 12.3428 4.15294 12.4721 4.11835C12.6014 4.08377 12.7363 4.07498 12.869 4.09251C13.0017 4.11003 13.1296 4.15353 13.2455 4.2205C13.3614 4.28748 13.463 4.37662 13.5444 4.48285C13.6258 4.58907 13.6856 4.7103 13.7201 4.8396C13.7547 4.96891 13.7635 5.10376 13.746 5.23646C13.7285 5.36916 13.685 5.49711 13.618 5.613L9.24 13.197H12.409C13.439 13.197 14.016 14.406 13.567 15.237H13.568ZM18.574 15.237H17.094L18.094 16.967C18.374 17.457 18.205 18.08 17.721 18.36C17.231 18.64 16.609 18.472 16.329 17.987C14.65 15.084 13.394 12.9 12.553 11.451C11.7 9.971 12.308 8.491 12.915 7.992C13.584 9.151 14.584 10.885 15.92 13.197H18.574C18.8445 13.197 19.104 13.3045 19.2952 13.4958C19.4865 13.687 19.594 13.9465 19.594 14.217C19.594 14.4875 19.4865 14.747 19.2952 14.9382C19.104 15.1295 18.8445 15.237 18.574 15.237Z" fill="url(#paint0_linear_109_2)"/>
<defs>
<linearGradient id="paint0_linear_109_2" x1="11.43" y1="22.86" x2="11.43" y2="0" gradientUnits="userSpaceOnUse">
<stop stop-color="#1665F0"/>
<stop offset="1" stop-color="#13C6FC"/>
</linearGradient>
</defs>
</svg>
