<svg width="20" height="25" viewBox="0 0 20 25" fill="none" xmlns="http://www.w3.org/2000/svg">
<path fill-rule="evenodd" clip-rule="evenodd" d="M14.3578 0.0481849C13.9708 0.113185 13.2828 0.356185 12.8478 0.582185C11.0948 1.49419 9.90076 3.35819 9.89676 5.18919L9.89576 5.66319L10.3638 5.63419C11.6448 5.55619 12.9368 4.77919 13.8018 3.56419C14.4818 2.61019 14.8318 1.56718 14.8318 0.494184C14.8318 -0.073816 14.8718 -0.0358151 14.3578 0.0481849ZM14.0168 5.94119C13.4588 5.98319 12.8008 6.16119 11.7588 6.55319C10.0568 7.19319 10.1158 7.19319 8.45876 6.56819C7.18276 6.08819 6.85376 6.01119 6.06276 6.01119C4.83276 6.01119 3.72676 6.38519 2.68876 7.14919C1.29676 8.17419 0.438759 9.68818 0.0647587 11.7822C-0.0202413 12.2592 -0.0222411 14.3402 0.0627589 14.8962C0.348759 16.7802 0.887759 18.4512 1.72976 20.0662C2.57676 21.6912 3.96476 23.4432 4.87976 24.0402C5.42176 24.3932 5.78376 24.5052 6.37376 24.5002C6.94876 24.4942 7.32876 24.3982 8.23176 24.0302C9.19676 23.6362 9.58776 23.5502 10.4228 23.5522C11.2568 23.5522 11.5818 23.6252 12.5598 24.0262C13.4068 24.3732 13.8298 24.4782 14.3778 24.4792C15.6418 24.4812 16.5398 23.8472 17.8278 22.0442C18.4538 21.1682 18.8178 20.5702 19.1908 19.8082C19.4738 19.2282 19.9108 18.1422 19.9108 18.0182C19.9108 17.9962 19.8188 17.9372 19.7068 17.8872C19.0238 17.5812 18.0178 16.7192 17.5668 16.0522C16.9118 15.0872 16.6118 13.9772 16.6668 12.7222C16.6998 11.9432 16.8418 11.3812 17.1788 10.6972C17.6046 9.84999 18.2269 9.11694 18.9938 8.55918L19.2788 8.35218L19.1068 8.11418C18.8338 7.73918 18.2788 7.21819 17.8388 6.92519C16.7498 6.20119 15.3498 5.84019 14.0168 5.94119Z" fill="#FAFAFA"/>
</svg>
