<svg width="25" height="25" viewBox="0 0 25 25" fill="none" xmlns="http://www.w3.org/2000/svg">
<mask id="mask0_108_97" style="mask-type:luminance" maskUnits="userSpaceOnUse" x="0" y="0" width="25" height="25">
<path d="M0 0H24.66V24.498H0V0Z" fill="white"/>
</mask>
<g mask="url(#mask0_108_97)">
<path d="M18.971 6.205V5.655C18.971 4.163 18.261 2.761 17.058 1.877C17.67 2.688 18 3.677 17.998 4.692V6.205H17.022V4.692C17.0224 4.07577 16.9013 3.46549 16.6658 2.89606C16.4302 2.32663 16.0847 1.80921 15.649 1.37338C15.2134 0.937537 14.6961 0.591826 14.1268 0.356003C13.5575 0.12018 12.9472 -0.00113086 12.331 -0.000999344C11.0863 -0.000734351 9.8927 0.493757 9.01249 1.37378C8.13228 2.2538 7.63753 3.44733 7.637 4.692V6.205H0V22.709C0 23.696 0.800001 24.497 1.789 24.497H22.874C23.861 24.497 24.662 23.697 24.662 22.709V6.205H18.971ZM8.61 4.692C8.60974 4.20358 8.70571 3.71989 8.89244 3.26857C9.07917 2.81725 9.353 2.40714 9.69827 2.06168C10.0435 1.71622 10.4535 1.44218 10.9047 1.25521C11.3559 1.06824 11.8396 0.972 12.328 0.972H12.331C13.3113 0.993419 14.2455 1.39246 14.9388 2.08591C15.6321 2.77936 16.0308 3.71368 16.052 4.694V6.207H10.558V5.657C10.558 4.67074 10.9497 3.72485 11.6469 3.02727C12.3441 2.32969 13.2897 1.93753 14.276 1.937H14.279C14.451 1.937 14.621 1.949 14.79 1.975C14.3245 1.76082 13.8184 1.6493 13.306 1.648C12.713 1.64749 12.1285 1.78893 11.6014 2.0605C11.0743 2.33207 10.6198 2.72587 10.276 3.209C9.82403 3.94511 9.58517 4.7922 9.58601 5.656V6.206H8.61V4.692Z" fill="#E8E8E8"/>
<path d="M11.933 10.178H7.16V14.951H11.933V10.178Z" fill="#F25022"/>
<path d="M17.501 10.178H12.728V14.951H17.501V10.178Z" fill="#7FBA00"/>
<path d="M11.933 15.745H7.16V20.518H11.933V15.745Z" fill="#00A4EF"/>
<path d="M17.501 15.745H12.728V20.518H17.501V15.745Z" fill="#FFB900"/>
</g>
</svg>
