<svg width="25" height="25" viewBox="0 0 25 25" fill="none" xmlns="http://www.w3.org/2000/svg">
<path fill-rule="evenodd" clip-rule="evenodd" d="M18.971 6.206V5.656C18.971 4.164 18.261 2.762 17.058 1.878C17.67 2.689 18 3.678 17.998 4.693V6.206H17.022V4.693C17.0224 4.07676 16.9013 3.46649 16.6658 2.89706C16.4302 2.32763 16.0847 1.81021 15.649 1.37437C15.2134 0.938537 14.6961 0.592826 14.1268 0.357002C13.5575 0.121179 12.9472 -0.000131413 12.331 1.06826e-07C11.0863 0.0002651 9.8927 0.494757 9.01249 1.37478C8.13228 2.2548 7.63753 3.44833 7.637 4.693V6.206H0V22.71C0 23.697 0.800001 24.498 1.789 24.498H22.874C23.861 24.498 24.662 23.698 24.662 22.71V6.206H18.971ZM8.61 4.693C8.60974 4.20458 8.70571 3.72089 8.89244 3.26957C9.07917 2.81825 9.353 2.40814 9.69827 2.06268C10.0435 1.71722 10.4535 1.44318 10.9047 1.25621C11.3559 1.06923 11.8396 0.973 12.328 0.973H12.331C13.3113 0.994418 14.2455 1.39346 14.9388 2.08691C15.6321 2.78036 16.0308 3.71467 16.052 4.695V6.208H10.558V5.658C10.558 4.67174 10.9497 3.72584 11.6469 3.02827C12.3441 2.33069 13.2897 1.93853 14.276 1.938H14.279C14.451 1.938 14.621 1.95 14.79 1.976C14.3245 1.76182 13.8184 1.6503 13.306 1.649C12.713 1.64849 12.1285 1.78993 11.6014 2.0615C11.0743 2.33307 10.6198 2.72687 10.276 3.21C9.82403 3.94611 9.58517 4.7932 9.58601 5.657V6.207H8.61V4.693ZM11.933 10.179H7.16V14.952H11.933V10.179ZM12.728 10.179H17.501V14.952H12.728V10.179ZM11.933 15.747H7.16V20.519H11.933V15.747ZM12.728 15.747H17.501V20.519H12.728V15.747Z" fill="#E8E8E8"/>
</svg>
