<svg width="688" height="127" viewBox="0 0 688 127" fill="none" xmlns="http://www.w3.org/2000/svg">
<path fill-rule="evenodd" clip-rule="evenodd" d="M57.2704 111.721C58.4615 112.912 59.6527 115.295 59.6527 117.677C59.6527 120.059 58.4616 121.846 56.6748 123.633C54.888 124.824 52.5057 126.015 49.5277 126.015H46.5498C41.1894 126.015 35.8291 124.824 31.0644 121.846C26.2997 118.868 22.7262 115.295 20.3438 110.53C17.9615 105.765 16.1747 100.405 16.1747 95.0446V55.7356H8.43202C6.04966 55.7356 4.26289 55.14 2.47612 53.9488C1.28494 52.7577 0.09375 50.9709 0.09375 49.1841C0.09375 46.8018 0.689349 45.6106 2.47612 43.8238C3.6673 42.6326 6.04966 42.037 8.43202 42.037H16.1747V19.4046C16.1747 17.0223 16.7703 15.2355 18.557 13.4487C20.3438 12.2576 22.1306 11.0664 24.5129 11.0664C26.8953 11.0664 29.2776 11.662 30.4688 13.4487C32.2556 14.6399 32.8512 17.0223 32.8512 19.4046V42.037H47.1454C49.5277 42.037 51.3145 42.6326 53.1013 43.8238C54.2924 45.015 55.4836 46.8018 55.4836 49.1841C55.4836 50.9709 54.888 52.7577 53.1013 53.9488C51.9101 55.14 49.5277 55.7356 47.1454 55.7356H32.8512V95.0446C32.8512 99.2137 34.0424 102.787 36.4247 105.765C38.8071 108.743 41.785 109.934 45.9542 109.934H51.9101C54.2924 109.339 55.4836 110.53 57.2704 111.721ZM145.418 43.8238C152.565 47.3974 157.925 52.7577 162.094 59.9047C166.263 66.4562 168.05 74.1989 168.05 82.5372V117.677C168.05 120.059 167.455 121.846 165.668 123.633C163.881 125.42 162.094 126.015 159.712 126.015C157.329 126.015 154.947 125.42 153.756 123.633C151.969 121.846 151.374 120.059 151.374 117.677V111.721C147.204 116.486 142.44 120.059 137.079 122.442C131.124 124.824 125.168 126.015 118.616 126.015C110.278 126.015 103.131 124.228 95.9837 120.059C89.4322 116.486 84.0719 111.125 80.4984 103.978C76.9248 97.4269 74.5425 89.6842 74.5425 81.346C74.5425 73.0077 76.3292 65.8606 80.4984 58.7136C84.6675 52.1621 90.0278 46.8018 97.7705 42.6326C104.918 39.0591 113.256 36.6767 121.594 36.6767C130.528 37.8679 138.271 40.2503 145.418 43.8238ZM137.079 108.148C141.844 105.765 145.418 102.192 147.8 97.4269C150.778 92.6622 151.969 87.8975 151.969 81.9416C151.969 76.5813 150.778 71.221 147.8 66.4562C145.418 61.6915 141.844 58.118 137.079 55.7356C132.315 53.3533 127.55 51.5665 121.594 51.5665C115.638 51.5665 110.873 52.7577 106.109 55.7356C101.344 58.118 97.7705 61.6915 95.3881 66.4562C92.4102 71.221 91.219 75.9857 91.219 81.9416C91.219 87.3019 92.4102 92.6622 95.3881 96.8313C98.3661 101.596 101.94 105.17 106.109 107.552C110.873 109.934 115.638 111.721 121.594 111.721C126.954 111.721 132.315 110.53 137.079 108.148ZM204.977 123.037C197.83 120.655 192.469 117.677 188.896 114.103C187.705 112.912 186.513 111.125 186.513 109.339C186.513 106.956 187.705 104.574 190.087 103.383C192.469 102.192 194.256 101 196.043 101C198.425 101 200.212 102.192 202.594 103.978C204.977 106.361 207.955 108.148 212.124 109.934C216.293 111.721 221.058 112.317 225.822 112.317C232.374 112.317 237.139 111.125 240.712 109.339C244.286 107.552 246.072 104.574 246.072 101C246.072 97.4269 244.286 95.0445 240.712 92.6622C237.139 90.2798 231.183 88.4931 222.844 87.3019C200.808 83.1327 190.087 74.7945 190.087 62.2871C190.087 56.9268 191.874 52.7577 194.852 49.1841C198.425 45.6106 202.594 42.6326 207.955 40.8459C213.315 39.0591 219.271 37.8679 225.227 37.8679C232.374 37.8679 239.521 39.0591 244.881 41.4415C250.837 43.8238 255.602 46.8018 258.58 50.3753C259.771 52.1621 260.962 53.9488 260.962 55.7356C260.962 57.5224 259.771 59.3092 257.984 60.5003C256.793 61.0959 255.006 61.6915 253.219 61.6915C250.241 61.6915 247.859 60.5003 244.881 58.7136C241.903 56.3312 238.925 54.5444 235.947 53.3533C232.969 52.1621 228.8 51.5665 224.036 51.5665C218.675 51.5665 214.506 52.1621 210.933 53.9488C207.359 55.7356 206.168 58.118 206.168 61.0959C206.168 63.4783 206.763 65.2651 207.955 66.4562C209.146 67.6474 211.528 69.4342 214.506 70.6254C217.484 71.8165 222.249 73.0077 228.205 74.1989C240.712 76.5813 249.646 79.5592 254.411 83.7283C259.771 87.8975 262.153 93.2578 262.153 99.8093C262.153 104.574 260.962 109.339 257.984 112.912C255.006 117.081 250.837 120.059 245.477 122.442C240.116 124.824 233.565 126.015 225.822 126.015C219.271 126.015 212.124 124.824 204.977 123.037ZM356.852 118.868C356.852 121.251 355.661 123.037 353.874 124.824C352.087 126.015 350.301 126.611 348.514 126.611C346.131 126.611 343.749 125.42 342.558 123.633L309.8 86.1107L301.462 93.2578V117.677C301.462 120.059 300.867 121.846 299.08 123.037C297.293 124.228 295.506 125.42 293.124 125.42C290.742 125.42 288.359 124.824 287.168 123.037C285.381 121.846 284.786 119.464 284.786 117.677V9.27961C284.786 6.89725 285.381 5.11048 287.168 3.9193C288.955 2.72812 290.742 1.53694 293.124 1.53694C295.506 1.53694 297.889 2.13253 299.08 3.9193C300.867 5.11048 301.462 7.49284 301.462 9.27961V73.6033L343.153 39.0591C344.345 37.8679 346.131 37.2723 348.514 37.2723C350.896 37.2723 352.683 37.8679 354.47 39.6547C355.661 40.8459 356.852 42.6326 356.852 44.4194C356.852 46.8018 355.661 48.5885 353.874 49.7797L322.308 75.9857L355.661 113.508C356.256 115.295 356.852 117.081 356.852 118.868ZM437.852 43.8238C444.999 47.3974 450.36 52.7577 454.529 59.9047C458.698 66.4562 460.485 74.1989 460.485 82.5372V117.677C460.485 120.059 459.889 121.846 458.102 123.633C456.316 125.42 454.529 126.015 451.551 126.015C449.168 126.015 446.786 125.42 445.595 123.633C443.808 121.846 443.213 120.059 443.213 117.677V111.721C439.043 116.486 434.279 120.059 428.918 122.442C422.963 124.824 417.007 126.015 410.455 126.015C402.117 126.015 394.97 124.228 387.823 120.059C381.271 116.486 375.911 111.125 372.337 103.978C368.764 97.4269 366.381 89.6842 366.381 81.346C366.381 73.0077 368.168 65.8606 372.337 58.7136C376.507 52.1621 381.867 46.8018 389.61 42.6326C396.757 39.0591 405.095 36.6767 413.433 36.6767C422.367 37.8679 430.705 40.2503 437.852 43.8238ZM429.514 108.148C434.279 105.765 437.852 102.192 440.235 97.4269C442.617 92.6622 444.404 87.8975 444.404 82.5372C444.404 77.1769 443.213 71.8165 440.235 67.0518C437.852 62.2871 434.279 58.7136 429.514 56.3312C424.749 53.9489 419.985 52.1621 414.029 52.1621C408.073 52.1621 403.308 53.3533 398.543 56.3312C393.779 58.7136 390.205 62.2871 387.823 67.0518C384.845 71.8165 383.654 76.5813 383.654 82.5372C383.654 87.8975 384.845 93.2578 387.823 97.4269C390.801 102.192 394.374 105.765 398.543 108.148C403.308 110.53 408.073 112.317 414.029 112.317C419.389 111.721 424.749 110.53 429.514 108.148ZM572.456 3.9193C574.242 5.11048 574.838 7.49284 574.838 9.8752V81.9416C574.838 90.2798 573.051 97.4269 568.882 104.574C564.713 111.125 559.353 116.486 552.206 120.655C545.058 124.228 537.316 126.611 528.382 126.611C519.448 126.611 511.705 124.824 504.558 120.655C497.411 117.081 491.455 111.721 487.286 104.574C483.117 98.0225 481.33 90.2798 481.33 81.9416C481.33 73.6033 483.117 66.4562 487.286 59.3092C490.86 52.7577 496.22 47.3974 502.772 43.2282C509.323 39.6547 517.066 37.2723 525.404 37.2723C531.955 37.2723 537.911 38.4635 543.867 40.8459C549.823 43.2282 554.588 46.8018 558.161 51.5665V8.68402C558.161 6.30166 558.757 4.51489 560.544 2.72812C562.331 1.53694 564.117 0.345764 566.5 0.345764C568.882 1.53694 570.669 2.13253 572.456 3.9193ZM543.272 108.148C548.036 105.765 551.61 102.192 553.992 97.4269C556.375 92.6622 558.161 87.8975 558.161 81.9416C558.161 76.5813 556.97 71.221 553.992 67.0518C551.61 62.2871 548.036 58.7136 543.272 56.3312C538.507 53.9489 533.742 52.1621 527.786 52.1621C521.83 52.1621 517.066 53.3533 512.301 56.3312C507.536 58.7136 503.963 62.2871 501.58 67.0518C499.198 71.8165 497.411 76.5813 497.411 81.9416C497.411 87.3019 498.602 92.6622 501.58 97.4269C504.558 102.192 508.132 105.765 512.301 108.148C517.066 110.53 521.83 112.317 527.786 112.317C533.147 111.721 538.507 110.53 543.272 108.148ZM685.618 85.5151C684.426 86.7063 682.044 87.3019 680.257 87.3019H615.338C616.529 94.449 620.103 100.405 626.059 105.17C632.015 109.934 639.162 111.721 648.096 111.721C651.669 111.721 655.243 111.125 658.816 109.934C662.39 108.743 665.368 107.552 667.75 105.765C669.537 104.574 671.323 103.978 673.11 103.978C674.897 103.978 677.279 104.574 678.471 105.765C680.257 107.552 681.448 109.339 681.448 111.125C681.448 112.912 680.257 114.699 678.471 115.89C674.301 118.868 669.537 121.25 664.176 123.037C658.221 124.824 652.86 126.015 647.5 126.015C637.97 126.015 629.632 124.228 622.485 120.655C615.338 117.081 609.382 111.721 605.213 105.17C601.044 98.6181 598.662 90.8754 598.662 82.5372C598.662 74.1989 600.448 66.4562 604.617 59.9047C608.787 53.3533 614.147 47.993 621.294 44.4194C628.441 40.8459 636.184 39.0591 645.118 39.0591C654.051 39.0591 661.794 40.8459 667.75 44.4194C674.301 47.993 679.066 52.7577 682.64 59.3092C686.213 65.8606 688 73.0077 688 81.346C688 82.5372 687.404 84.3239 685.618 85.5151ZM624.867 58.118C619.507 62.2871 616.529 68.243 614.742 75.3901H671.919C670.728 68.243 667.75 62.8827 663.581 58.118C658.816 53.9488 652.86 51.5665 645.118 51.5665C636.779 51.5665 630.228 53.9488 624.867 58.118Z" fill="white"/>
</svg>
