<svg width="19" height="19" viewBox="0 0 19 19" fill="none" xmlns="http://www.w3.org/2000/svg">
<path opacity="0.7" d="M3.501 7.666H5.167C6.834 7.666 7.667 6.833 7.667 5.166V3.5C7.667 1.833 6.834 1 5.167 1H3.5C1.834 1 1 1.833 1 3.5V5.166C1 6.833 1.835 7.666 3.501 7.666ZM13.5 7.666H15.167C16.834 7.666 17.667 6.833 17.667 5.166V3.5C17.667 1.833 16.834 1 15.167 1H13.501C11.834 1 11.001 1.833 11.001 3.5V5.166C11.001 6.833 11.833 7.666 13.5 7.666ZM13.5 17.666H15.167C16.834 17.666 17.667 16.833 17.667 15.166V13.5C17.667 11.833 16.834 11 15.167 11H13.501C11.834 11 11.001 11.833 11.001 13.5V15.166C11.001 16.833 11.833 17.666 13.5 17.666ZM3.501 17.666H5.167C6.834 17.666 7.667 16.833 7.667 15.166V13.5C7.667 11.833 6.834 11 5.167 11H3.5C1.834 11 1 11.833 1 13.5V15.166C1 16.833 1.835 17.666 3.501 17.666Z" fill="black" stroke="black" stroke-width="1.5" stroke-miterlimit="10" stroke-linecap="round" stroke-linejoin="round"/>
</svg>
