<svg width="21" height="21" viewBox="0 0 21 21" fill="none" xmlns="http://www.w3.org/2000/svg"><path d="M4.667 8.833h1.666c1.667 0 2.5-.833 2.5-2.5V4.667c0-1.667-.833-2.5-2.5-2.5H4.666c-1.666 0-2.5.833-2.5 2.5v1.666c0 1.667.834 2.5 2.5 2.5Zm9.999 0h1.667c1.667 0 2.5-.833 2.5-2.5V4.667c0-1.667-.833-2.5-2.5-2.5h-1.666c-1.667 0-2.5.833-2.5 2.5v1.666c0 1.667.833 2.5 2.5 2.5Zm0 10h1.667c1.667 0 2.5-.833 2.5-2.5v-1.666c0-1.667-.833-2.5-2.5-2.5h-1.666c-1.667 0-2.5.833-2.5 2.5v1.666c0 1.667.833 2.5 2.5 2.5Zm-9.999 0h1.666c1.667 0 2.5-.833 2.5-2.5v-1.666c0-1.667-.833-2.5-2.5-2.5H4.666c-1.666 0-2.5.833-2.5 2.5v1.666c0 1.667.834 2.5 2.5 2.5Z" opacity="0.7" stroke="#FAFAFA" stroke-width="1.5" stroke-miterlimit="10" stroke-linecap="round" stroke-linejoin="round"></path></svg>