<svg xmlns="http://www.w3.org/2000/svg" width="24" height="24" fill="none" viewBox="0 0 24 24"><path fill="#F7F7F7" fill-rule="evenodd" d="M18.54 5.457c-3.608-3.61-9.471-3.61-13.08 0-2.826 2.826-3.44 7.014-1.853 10.441a.73.73 0 01.015.035c.092.23.09.489.086.636a7.287 7.287 0 01-.05.612c-.025.204-.055.43-.086.658l-.006.048c-.033.247-.067.502-.097.757-.06.516-.097.999-.08 1.385.008.192.029.335.056.433.009.032.017.055.023.07a.58.58 0 00.07.023c.098.027.24.048.433.056.386.017.869-.02 1.385-.08.255-.03.51-.064.757-.097l.047-.006c.23-.031.454-.061.659-.085.216-.025.428-.046.612-.05.147-.005.406-.007.635.085l.035.015c3.428 1.586 7.615.973 10.44-1.853 3.608-3.61 3.616-9.467 0-13.083zm1.061-1.06C15.407.2 8.594.2 4.4 4.397 1.136 7.66.414 12.485 2.209 16.447v.08a5.886 5.886 0 01-.042.48c-.022.191-.05.404-.082.637l-.006.043c-.033.247-.068.514-.1.784-.061.532-.111 1.113-.09 1.623.012.256.042.52.11.765.065.24.181.516.404.738.223.223.499.339.738.405.245.067.51.097.765.108.51.022 1.09-.028 1.623-.09.27-.03.536-.066.784-.1l.042-.005c.234-.031.446-.06.637-.082.205-.024.364-.038.481-.041h.079c3.963 1.793 8.786 1.073 12.05-2.192 4.193-4.194 4.202-11.001 0-15.203zm-12.43 8.016a.75.75 0 01.75-.75h.01a.75.75 0 010 1.5h-.01a.75.75 0 01-.75-.75zm4.01 0a.75.75 0 01.75-.75h.008a.75.75 0 010 1.5h-.009a.75.75 0 01-.75-.75zm4.008 0a.75.75 0 01.75-.75h.01a.75.75 0 010 1.5h-.01a.75.75 0 01-.75-.75z" clip-rule="evenodd"></path></svg>