<svg width="22" height="22" viewBox="0 0 22 22" fill="none" xmlns="http://www.w3.org/2000/svg">
<path fill-rule="evenodd" clip-rule="evenodd" d="M5.80999 4.978C5.399 5.35724 4.98262 5.73061 4.56099 6.098C4.28299 6.344 4.03999 6.558 3.82099 6.76C3.31599 7.226 2.99699 7.578 2.77099 7.972C2.31899 8.762 2.15099 9.869 2.15099 12.713C2.15099 14.769 2.27299 16.245 2.55099 17.315C2.82499 18.365 3.23099 18.968 3.77099 19.355C4.33399 19.759 5.13699 20 6.34799 20.125C7.55799 20.249 9.06499 20.25 10.986 20.25C12.907 20.25 14.416 20.25 15.625 20.125C16.835 20 17.639 19.759 18.202 19.355C18.742 18.968 19.148 18.365 19.422 17.315C19.699 16.245 19.822 14.769 19.822 12.713C19.822 9.869 19.654 8.762 19.202 7.972C18.976 7.578 18.657 7.226 18.152 6.76C17.934 6.558 17.691 6.344 17.412 6.098L17.276 5.978C16.946 5.688 16.576 5.36 16.163 4.978C15.919 4.78 15.666 4.567 15.404 4.346C14.833 3.864 14.218 3.346 13.554 2.876C12.57 2.181 11.678 1.75 10.958 1.75C10.241 1.75 9.36099 2.181 8.38999 2.878C7.75499 3.333 7.17499 3.827 6.62999 4.291C6.34799 4.531 6.07599 4.763 5.80999 4.978ZM7.51599 1.659C8.51599 0.942 9.73199 0.25 10.958 0.25C12.181 0.25 13.408 0.936 14.42 1.652C15.136 2.158 15.845 2.754 16.437 3.254C16.69 3.467 16.922 3.663 17.125 3.826L17.165 3.86C17.57 4.237 17.935 4.56 18.268 4.853L18.401 4.971C18.679 5.216 18.937 5.443 19.17 5.657C19.709 6.155 20.163 6.632 20.504 7.227C21.184 8.414 21.322 9.927 21.322 12.713C21.322 14.8 21.201 16.432 20.873 17.693C20.54 18.973 19.981 19.924 19.077 20.573C18.197 21.205 17.081 21.483 15.779 21.617C14.484 21.75 12.899 21.75 11.024 21.75H10.949C9.07299 21.75 7.48899 21.75 6.19399 21.617C4.89199 21.482 3.77599 21.205 2.89599 20.573C1.99199 19.924 1.43199 18.973 1.09999 17.693C0.771994 16.432 0.649994 14.8 0.649994 12.713C0.649994 9.926 0.788994 8.414 1.46999 7.226C1.80999 6.631 2.26499 6.156 2.80399 5.657C3.03599 5.443 3.29399 5.216 3.57199 4.972L3.70599 4.853C4.09192 4.51582 4.47329 4.17345 4.84999 3.826C5.06199 3.655 5.30999 3.445 5.58099 3.214C6.15499 2.726 6.83599 2.147 7.51699 1.659H7.51599ZM7.32899 15.135C7.32899 14.9361 7.40801 14.7453 7.54866 14.6047C7.68932 14.464 7.88008 14.385 8.07899 14.385H13.894C14.0929 14.385 14.2837 14.464 14.4243 14.6047C14.565 14.7453 14.644 14.9361 14.644 15.135C14.644 15.3339 14.565 15.5247 14.4243 15.6653C14.2837 15.806 14.0929 15.885 13.894 15.885H8.07999C7.88108 15.885 7.69032 15.806 7.54966 15.6653C7.40901 15.5247 7.32899 15.3339 7.32899 15.135Z" fill="white"/>
</svg>
