<svg width="23" height="23" viewBox="0 0 23 23" fill="none" xmlns="http://www.w3.org/2000/svg">
<path fill-rule="evenodd" clip-rule="evenodd" d="M2 0C1.46957 0 0.960859 0.210714 0.585786 0.585786C0.210714 0.960859 0 1.46957 0 2V20.857C0 21.3874 0.210714 21.8961 0.585786 22.2712C0.960859 22.6463 1.46957 22.857 2 22.857H20.857C21.3874 22.857 21.8961 22.6463 22.2712 22.2712C22.6463 21.8961 22.857 21.3874 22.857 20.857V2C22.857 1.46957 22.6463 0.960859 22.2712 0.585786C21.8961 0.210714 21.3874 0 20.857 0H2ZM14.822 13.49C14.9171 13.5848 15.0381 13.6493 15.1698 13.6754C15.3015 13.7015 15.438 13.688 15.562 13.6367C15.6861 13.5853 15.7921 13.4984 15.8669 13.3869C15.9416 13.2754 15.9817 13.1442 15.982 13.01C15.9824 12.8754 15.9428 12.7437 15.8681 12.6317C15.7935 12.5198 15.6872 12.4325 15.5628 12.3811C15.4384 12.3298 15.3015 12.3166 15.1696 12.3433C15.0376 12.37 14.9167 12.4353 14.822 12.531C14.7589 12.594 14.7088 12.6688 14.6746 12.7512C14.6404 12.8335 14.6228 12.9218 14.6228 13.011C14.6228 13.1002 14.6404 13.1885 14.6746 13.2708C14.7088 13.3532 14.7589 13.427 14.822 13.49ZM7.562 13.638C7.64442 13.6722 7.73276 13.6899 7.822 13.69H7.823C7.95704 13.6895 8.08794 13.6493 8.19925 13.5747C8.31056 13.5 8.39731 13.394 8.4486 13.2702C8.49989 13.1464 8.51343 13.0101 8.48753 12.8786C8.46162 12.7471 8.39742 12.6261 8.303 12.531C8.17337 12.4158 8.00462 12.3545 7.83128 12.3596C7.65793 12.3647 7.49308 12.4358 7.37045 12.5585C7.24782 12.6811 7.17668 12.8459 7.17158 13.0193C7.16648 13.1926 7.2278 13.3614 7.343 13.491C7.40598 13.554 7.47974 13.6039 7.562 13.638ZM16.902 7.281L15.543 9.621C16.7112 10.2538 17.7022 11.1693 18.4254 12.2838C19.1486 13.3983 19.581 14.6763 19.683 16.001H3.429C3.53406 14.6754 3.96824 13.3969 4.69221 12.2814C5.41617 11.166 6.40703 10.2488 7.575 9.613L6.225 7.275C6.20562 7.24296 6.19286 7.20737 6.18747 7.17031C6.18209 7.13326 6.18419 7.09551 6.19366 7.05928C6.20312 7.02305 6.21975 6.98909 6.24257 6.95941C6.26539 6.92972 6.29393 6.90492 6.32651 6.88645C6.35908 6.86799 6.39503 6.85625 6.43222 6.85193C6.46941 6.8476 6.50709 6.85078 6.54303 6.86127C6.57898 6.87177 6.61245 6.88936 6.64147 6.91302C6.67049 6.93668 6.69448 6.96591 6.712 6.999L8.085 9.366C9.17943 8.87413 10.3661 8.62117 11.566 8.624C12.7648 8.61977 13.9504 8.8753 15.041 9.373L16.414 7.006C16.4505 6.94129 16.5111 6.89371 16.5827 6.87374C16.6542 6.85377 16.7308 6.86303 16.7955 6.8995C16.8602 6.93597 16.9078 6.99665 16.9278 7.06819C16.9477 7.13974 16.9385 7.21629 16.902 7.281Z" fill="#FAFAFA"/>
</svg>
