<svg width="23" height="23" viewBox="0 0 23 23" fill="none" xmlns="http://www.w3.org/2000/svg">
<path d="M11.4582 22.7329C17.6732 22.7329 22.7122 17.6939 22.7122 11.4779C22.7122 5.26187 17.6732 0.22287 11.4582 0.22287C5.24221 0.22287 0.203209 5.26287 0.203209 11.4779C0.203209 17.6939 5.24221 22.7329 11.4582 22.7329Z" fill="white"/>
<path d="M18.6202 13.5239C18.6202 11.6242 17.8656 9.80243 16.5224 8.45921C15.1791 7.11598 13.3573 6.36136 11.4577 6.36136C9.5581 6.36136 7.73629 7.11598 6.39306 8.45921C5.04983 9.80243 4.29521 11.6242 4.29521 13.5239H6.34121C6.34121 12.852 6.47354 12.1868 6.73064 11.5661C6.98775 10.9454 7.36459 10.3814 7.83965 9.9063C8.31472 9.43124 8.8787 9.0544 9.4994 8.79729C10.1201 8.54019 10.7854 8.40786 11.4572 8.40786C12.1291 8.40786 12.7943 8.54019 13.415 8.79729C14.0357 9.0544 14.5997 9.43124 15.0748 9.9063C15.5498 10.3814 15.9267 10.9454 16.1838 11.5661C16.4409 12.1868 16.5732 12.852 16.5732 13.5239" fill="black" fill-opacity="0.1"/>
<path d="M11.9692 16.7989C13.0004 16.7989 13.9893 16.3892 14.7184 15.6601C15.4476 14.931 15.8572 13.942 15.8572 12.9109C15.8572 11.8797 15.4476 10.8908 14.7184 10.1616C13.9893 9.43249 13.0004 9.02286 11.9692 9.02286C10.938 9.02286 9.94912 9.43249 9.21997 10.1616C8.49083 10.8908 8.08121 11.8797 8.08121 12.9109C8.08121 13.942 8.49083 14.931 9.21997 15.6601C9.94912 16.3892 10.938 16.7989 11.9692 16.7989Z" fill="black" fill-opacity="0.1"/>
<path d="M11.4572 15.6739C12.5698 15.6739 13.6368 15.2319 14.4235 14.4452C15.2102 13.6585 15.6522 12.5915 15.6522 11.4789C15.6522 10.3663 15.2102 9.29928 14.4235 8.51257C13.6368 7.72585 12.5698 7.28387 11.4572 7.28387C10.3446 7.28387 9.27761 7.72585 8.49089 8.51257C7.70418 9.29928 7.26221 10.3663 7.26221 11.4789C7.26221 12.5915 7.70418 13.6585 8.49089 14.4452C9.27761 15.2319 10.3446 15.6739 11.4572 15.6739Z" fill="url(#paint0_linear_109_4)"/>
<path d="M21.6892 6.36087C18.8722 0.693868 11.9942 -1.61714 6.32721 1.20086C4.55999 2.07889 3.04954 3.39852 1.94221 5.03187L6.54721 13.0129C6.30812 12.2524 6.25003 11.4467 6.37756 10.6598C6.50509 9.87297 6.81473 9.12681 7.28177 8.48085C7.74881 7.83488 8.36033 7.30698 9.06757 6.93925C9.7748 6.57153 10.5582 6.37415 11.3552 6.36287" fill="url(#paint1_linear_109_4)"/>
<path d="M1.94221 5.03087C-1.58179 10.2879 -0.17779 17.4029 5.08021 20.9309C6.70677 22.021 8.5855 22.6761 10.5372 22.8339L15.3472 14.6459C14.7664 15.351 14.0072 15.8876 13.1487 16.1999C12.2902 16.5122 11.3636 16.5888 10.4655 16.4217C9.56736 16.2545 8.7304 15.8498 8.04167 15.2497C7.35293 14.6495 6.83758 13.8757 6.54921 13.0089" fill="url(#paint2_linear_109_4)"/>
<path d="M10.5372 22.8339C16.8472 23.3119 22.3502 18.5819 22.8272 12.2719C22.9813 10.2357 22.5884 8.19527 21.6892 6.36188H11.3572C12.3159 6.36689 13.2539 6.64114 14.0644 7.15336C14.8748 7.66558 15.525 8.39518 15.9409 9.25899C16.3568 10.1228 16.5217 11.0861 16.4167 12.039C16.3117 12.992 15.9412 13.8963 15.3472 14.6489" fill="url(#paint3_linear_109_4)"/>
<path d="M1.94221 5.02987L6.54721 13.0109C6.2086 11.8628 6.28074 10.6325 6.75121 9.53187L2.14721 4.72287" fill="url(#paint4_linear_109_4)"/>
<path d="M10.5372 22.8349L15.3472 14.6479C14.5889 15.5526 13.541 16.1674 12.3812 16.3879L10.3352 22.8329" fill="url(#paint5_linear_109_4)"/>
<path d="M21.6892 6.36087H11.3572C12.1255 6.36476 12.8831 6.54152 13.5738 6.87804C14.2645 7.21457 14.8706 7.70223 15.3472 8.30487L21.8962 6.66787" fill="url(#paint6_linear_109_4)"/>
<defs>
<linearGradient id="paint0_linear_109_4" x1="11.4492" y1="7.27787" x2="11.4492" y2="15.6669" gradientUnits="userSpaceOnUse">
<stop stop-color="#81B4E0"/>
<stop offset="1" stop-color="#0C5A94"/>
</linearGradient>
<linearGradient id="paint1_linear_109_4" x1="11.8162" y1="0.0178647" x2="11.8162" y2="9.32887" gradientUnits="userSpaceOnUse">
<stop stop-color="#F06B59"/>
<stop offset="1" stop-color="#DF2227"/>
</linearGradient>
<linearGradient id="paint2_linear_109_4" x1="2.78821" y1="19.6219" x2="7.49521" y2="11.8459" gradientUnits="userSpaceOnUse">
<stop stop-color="#388B41"/>
<stop offset="1" stop-color="#4CB749"/>
</linearGradient>
<linearGradient id="paint3_linear_109_4" x1="18.5552" y1="20.4499" x2="13.5412" y2="8.37688" gradientUnits="userSpaceOnUse">
<stop stop-color="#E4B022"/>
<stop offset="0.3" stop-color="#FCD209"/>
</linearGradient>
<linearGradient id="paint4_linear_109_4" x1="4.34621" y1="12.7039" x2="4.34621" y2="4.51887" gradientUnits="userSpaceOnUse">
<stop stop-opacity="0.15"/>
<stop offset="0.3" stop-opacity="0.06"/>
<stop offset="1" stop-opacity="0.03"/>
</linearGradient>
<linearGradient id="paint5_linear_109_4" x1="15.6452" y1="15.3489" x2="10.0172" y2="21.0789" gradientUnits="userSpaceOnUse">
<stop stop-opacity="0.15"/>
<stop offset="0.3" stop-opacity="0.06"/>
<stop offset="1" stop-opacity="0.03"/>
</linearGradient>
<linearGradient id="paint6_linear_109_4" x1="15.5632" y1="16.9969" x2="16.3812" y2="8.91487" gradientUnits="userSpaceOnUse">
<stop stop-opacity="0.15"/>
<stop offset="0.3" stop-opacity="0.06"/>
<stop offset="1" stop-opacity="0.03"/>
</linearGradient>
</defs>
</svg>
