<svg width="23" height="23" viewBox="0 0 23 23" fill="none" xmlns="http://www.w3.org/2000/svg">
<path d="M10.2059 15.3566C9.4129 14.4726 8.87289 13.4166 8.70089 12.2326C8.34893 12.7687 8.06729 13.3477 7.86289 13.9556C6.80589 17.1136 8.64289 21.0536 11.7669 22.2016C14.4549 23.0976 17.4759 21.5016 19.4629 19.7556C19.7609 19.3536 22.1159 17.2756 20.9439 17.0456C17.4759 18.8256 12.8829 18.3206 10.2059 15.3566ZM10.8949 8.68359C12.0889 8.67259 10.9409 8.19059 10.4469 7.82259C9.25189 7.16759 7.8509 6.84659 6.4959 6.84659C2.0739 6.89259 -1.1241 9.66059 0.373895 14.2426C1.4539 18.6986 5.32389 22.2826 9.89489 22.8566C7.54089 21.3756 6.11689 18.5966 6.11689 15.8276C6.20889 12.9216 7.99989 9.51059 10.8949 8.68359ZM0.924898 7.16759C4.4169 4.59559 9.97489 4.80159 12.9849 8.04059C14.1559 9.31559 14.9599 11.4866 13.8919 13.0606C11.8939 15.2186 17.4299 15.5066 18.6119 15.1846C22.9079 14.3576 24.0449 9.36159 22.0009 5.91559C20.0479 2.01159 15.7179 -0.0334119 11.4689 0.00158805C6.8059 -0.0784119 2.6129 2.87159 0.924898 7.16759Z" fill="#FAFAFA"/>
</svg>
