<svg width="24" height="24" viewBox="0 0 24 24" fill="none" xmlns="http://www.w3.org/2000/svg">
<path d="M8.422 8.338C8.422 8.338 7.776 6.4 8.207 4.892C6.269 5.323 1.099 12.431 1.099 12.431C1.02627 14.1557 1.40911 15.8692 2.209 17.399C3.0286 18.9614 4.22764 20.2928 5.696 21.271C7.2013 22.2754 8.92417 22.9068 10.722 23.113C12.5307 23.3252 14.364 23.1094 16.074 22.483C17.774 21.857 19.282 20.843 20.461 19.531C21.63 18.2398 22.4454 16.6683 22.828 14.969C23.2016 13.2884 23.1236 11.5388 22.602 9.898C22.0683 8.23242 21.1167 6.73136 19.838 5.538C19.838 5.538 20.915 7.477 20.915 8.769C20.269 6.831 16.607 3.384 15.315 0.799004C10.145 3.599 11.869 9.2 11.869 9.2" fill="url(#paint0_linear_108_99)"/>
<path d="M11.868 17.817C13.3533 17.817 14.7779 17.2269 15.8281 16.1766C16.8784 15.1264 17.4685 13.7018 17.4685 12.2165C17.4685 10.7312 16.8784 9.30664 15.8281 8.25635C14.7779 7.20605 13.3533 6.616 11.868 6.616C10.3828 6.616 8.95841 7.206 7.9082 8.2562C6.858 9.3064 6.268 10.7308 6.268 12.216C6.268 13.7012 6.858 15.1256 7.9082 16.1758C8.95841 17.226 10.3828 17.817 11.868 17.817Z" fill="url(#paint1_radial_108_99)"/>
<path d="M2.607 7.476L11.869 10.061C10.576 12.431 8.422 10.707 6.915 13.077C6.97312 13.8812 7.23545 14.6574 7.67718 15.332C8.1189 16.0066 8.72542 16.5573 9.43936 16.9321C10.1533 17.3069 10.9511 17.4934 11.7572 17.474C12.5633 17.4545 13.3511 17.2297 14.0461 16.8208C14.7411 16.412 15.3203 15.8326 15.7289 15.1374C16.1376 14.4423 16.3621 13.6544 16.3813 12.8483C16.4005 12.0422 16.2138 11.2445 15.8387 10.5307C15.4637 9.81684 14.9127 9.2105 14.238 8.769C14.238 8.769 21.346 9.415 17.9 17.815H4.115" fill="url(#paint2_linear_108_99)"/>
<path d="M5.622 7.046C9.069 7.046 8.207 8.554 11.869 10.061C7.992 11.354 6.915 8.123 3.684 10.061C4.761 12 6.268 11.784 6.268 11.784C6.484 21.046 21.777 18.031 20.7 8.123C21.656 10.681 21.621 13.443 20.603 15.838C20.1044 17.0172 19.3703 18.0821 18.4458 18.9677C17.5212 19.8532 16.4256 20.5407 15.226 20.988C12.792 21.901 10.036 21.813 7.528 20.741C5.00356 19.6548 2.9519 17.7 1.745 15.231C-0.192999 11.354 1.53 6.615 5.191 4.246" fill="url(#paint3_linear_108_99)"/>
<defs>
<linearGradient id="paint0_linear_108_99" x1="16.469" y1="0.800004" x2="7.41" y2="18.576" gradientUnits="userSpaceOnUse">
<stop offset="0.3" stop-color="#FFDD55"/>
<stop offset="0.6" stop-color="#FF8855"/>
<stop offset="1" stop-color="#DD0066"/>
</linearGradient>
<radialGradient id="paint1_radial_108_99" cx="0" cy="0" r="1" gradientUnits="userSpaceOnUse" gradientTransform="translate(10.749 14.456) scale(5.60025)">
<stop offset="0.4" stop-color="#7744DD"/>
<stop offset="1" stop-color="#AA22DD"/>
</radialGradient>
<linearGradient id="paint2_linear_108_99" x1="13.972" y1="7.476" x2="7.804" y2="20.214" gradientUnits="userSpaceOnUse">
<stop offset="0.3" stop-color="#FFDD55"/>
<stop offset="0.6" stop-color="#FF8855"/>
<stop offset="1" stop-color="#DD0066"/>
</linearGradient>
<linearGradient id="paint3_linear_108_99" x1="17.302" y1="7.719" x2="10.849" y2="19.119" gradientUnits="userSpaceOnUse">
<stop offset="0.2" stop-color="#FFDD55"/>
<stop offset="1" stop-color="#FF3333"/>
</linearGradient>
</defs>
</svg>
