<svg width="23" height="23" viewBox="0 0 23 23" fill="none" xmlns="http://www.w3.org/2000/svg">
<path d="M20.408 0H2.45C1.80039 -5.41114e-08 1.17738 0.257988 0.717942 0.717236C0.258506 1.17648 0.000265146 1.79939 0 2.449V20.409C0.000529955 21.0583 0.258751 21.6808 0.717941 22.1398C1.17713 22.5988 1.79974 22.8567 2.449 22.857H20.409C21.0583 22.8565 21.6808 22.5982 22.1398 22.1391C22.5988 21.6799 22.8567 21.0573 22.857 20.408V2.45C22.8567 1.80057 22.5986 1.17781 22.1394 0.71859C21.6802 0.259371 21.0574 0.000265021 20.408 0ZM6.48 17.984C6.33943 18.2073 6.11782 18.3674 5.86171 18.4307C5.60559 18.494 5.3349 18.4557 5.10647 18.3237C4.87804 18.1917 4.70965 17.9763 4.63666 17.7227C4.56366 17.4692 4.59174 17.1973 4.715 16.964L5.445 15.704C6.266 15.454 6.94 15.647 7.465 16.284L6.48 17.984ZM13.567 15.235H4.286C3.724 15.235 3.266 14.775 3.266 14.215C3.266 13.654 3.725 13.195 4.286 13.195H6.888L10.225 7.419L9.179 5.613C9.04428 5.37879 9.00778 5.10077 9.07749 4.83972C9.1472 4.57868 9.31745 4.35586 9.551 4.22C9.78533 4.08536 10.0634 4.04901 10.3245 4.11892C10.5856 4.18882 10.8083 4.35928 10.944 4.593L11.398 5.378L11.851 4.593C11.9151 4.47169 12.003 4.36456 12.1095 4.27802C12.2159 4.19148 12.3388 4.12732 12.4706 4.08936C12.6025 4.05139 12.7406 4.04042 12.8768 4.0571C13.013 4.07377 13.1444 4.11775 13.2632 4.1864C13.382 4.25505 13.4857 4.34696 13.5682 4.45663C13.6506 4.5663 13.7101 4.69148 13.743 4.82467C13.7759 4.95786 13.7817 5.09633 13.7599 5.23178C13.738 5.36724 13.6891 5.49689 13.616 5.613L9.239 13.195H12.407C13.437 13.195 14.016 14.405 13.567 15.235ZM18.571 15.235H17.091L18.091 16.965C18.372 17.455 18.203 18.078 17.719 18.358C17.229 18.638 16.606 18.469 16.326 17.985C14.648 15.082 13.393 12.899 12.551 11.45C11.699 9.97 12.306 8.49 12.914 7.991C13.582 9.149 14.582 10.884 15.918 13.195H18.571C18.7049 13.195 18.8376 13.2214 18.9613 13.2726C19.0851 13.3239 19.1975 13.399 19.2922 13.4938C19.387 13.5885 19.4621 13.7009 19.5134 13.8247C19.5646 13.9484 19.591 14.0811 19.591 14.215C19.591 14.3489 19.5646 14.4816 19.5134 14.6053C19.4621 14.7291 19.387 14.8415 19.2922 14.9362C19.1975 15.031 19.0851 15.1061 18.9613 15.1574C18.8376 15.2086 18.7049 15.235 18.571 15.235Z" fill="#FAFAFA"/>
</svg>
