<svg width="23" height="23" viewBox="0 0 23 23" fill="none" xmlns="http://www.w3.org/2000/svg">
<path d="M4.62984 14.233L8.62984 3.83203H14.6308L18.6308 14.633L20.6318 15.033L21.8318 18.634L17.4318 22.234L14.6318 19.834L8.22984 20.234L5.02984 22.234L1.82985 20.234L1.02884 17.834L2.62885 15.034L4.62885 14.234L4.62984 14.233Z" fill="#FADB5F"/>
<path d="M5.42984 14.233L8.22984 8.23302C8.22984 8.23302 9.79984 9.48302 11.4298 9.43302C12.9118 9.38802 14.6308 7.83302 14.6308 7.83302L17.8308 14.233L14.6308 19.434H8.23084L5.42984 14.233Z" fill="#FAFAFA"/>
<path fill-rule="evenodd" clip-rule="evenodd" d="M6.91985 3.66802C7.13303 2.63019 7.69854 1.69801 8.52052 1.02949C9.34249 0.360981 10.3703 -0.00272935 11.4298 2.11147e-05C12.4897 -0.00319158 13.518 0.360305 14.3404 1.02886C15.1628 1.69741 15.7286 2.62985 15.9418 3.66802L16.4568 6.21602C16.7255 7.55058 17.2546 8.8191 18.0138 9.94902L18.8978 11.264C19.4518 12.086 19.8128 13.014 19.9618 13.98C20.3944 14.0155 20.8087 14.1703 21.1586 14.4272C21.5085 14.6841 21.7803 15.0329 21.9438 15.435L22.6938 17.295C22.8768 17.7517 22.9096 18.2549 22.7875 18.7315C22.6654 19.2081 22.3948 19.6335 22.0148 19.946L19.1438 22.321C18.7365 22.6567 18.2286 22.8462 17.7009 22.8595C17.1733 22.8727 16.6565 22.7088 16.2328 22.394L15.0748 21.534C15.0597 21.5226 15.0447 21.5109 15.0298 21.499C14.4494 21.6551 13.8509 21.7341 13.2498 21.734H9.60984C8.99484 21.734 8.39785 21.654 7.82984 21.499L7.78484 21.535L6.62785 22.395C6.20421 22.7094 5.68749 22.873 5.16009 22.8596C4.63269 22.8462 4.12495 22.6566 3.71784 22.321L0.844844 19.948C0.464363 19.635 0.193585 19.2088 0.0718418 18.7313C-0.0499018 18.2539 -0.0162737 17.75 0.167842 17.293L0.917842 15.435C1.08128 15.0331 1.35294 14.6843 1.70264 14.4275C2.05235 14.1706 2.46642 14.0157 2.89885 13.98C3.04885 13.008 3.41184 12.08 3.96084 11.264L4.84484 9.94902C5.60512 8.81931 6.13523 7.55079 6.40484 6.21602L6.91784 3.66802H6.91985ZM16.5268 14.442C16.201 14.6854 15.9445 15.0098 15.7828 15.383L14.6128 18.092C14.0103 18.4444 13.3248 18.6301 12.6268 18.63H10.2338C9.53581 18.6302 8.85032 18.4445 8.24784 18.092L7.07784 15.383C6.91598 15.0097 6.65912 14.6852 6.33284 14.442C6.37284 13.951 6.50684 13.465 6.73484 13.012L8.65184 9.21002L8.66285 9.22002C9.39968 9.94863 10.3941 10.3573 11.4303 10.3573C12.4666 10.3573 13.461 9.94863 14.1978 9.22002L14.2088 9.21002L16.1258 13.012C16.3548 13.465 16.4888 13.951 16.5288 14.442H16.5268ZM13.7788 6.50602V4.65702H12.2138V5.87802C12.5458 5.94502 12.8708 6.05602 13.1798 6.21002L13.7788 6.50602ZM10.6468 5.87802V4.65802H9.08384V6.50602L9.68284 6.21002C9.99184 6.05602 10.3178 5.94502 10.6488 5.87802H10.6468ZM3.09884 15.525C2.94287 15.5248 2.79037 15.5711 2.66087 15.6581C2.53136 15.745 2.43073 15.8686 2.37184 16.013L1.62184 17.871C1.56074 18.0232 1.5496 18.1908 1.59005 18.3497C1.6305 18.5087 1.72043 18.6506 1.84684 18.755L4.71884 21.128C4.85445 21.24 5.02359 21.3033 5.19937 21.308C5.37514 21.3127 5.54744 21.2585 5.68884 21.154L6.84584 20.293C6.98592 20.1893 7.08683 20.0413 7.13221 19.873C7.17759 19.7048 7.16478 19.5261 7.09584 19.366L5.63884 15.995C5.57792 15.8548 5.47728 15.7355 5.34933 15.6518C5.22138 15.5681 5.07173 15.5237 4.91884 15.524L3.09884 15.525ZM20.4888 16.013C20.43 15.8687 20.3295 15.7453 20.2002 15.6584C20.0709 15.5714 19.9186 15.525 19.7628 15.525H17.9398C17.7873 15.5249 17.638 15.5693 17.5102 15.6528C17.3825 15.7363 17.282 15.8552 17.2208 15.995L15.7638 19.365C15.6947 19.5251 15.6818 19.7038 15.7272 19.8721C15.7726 20.0404 15.8736 20.1884 16.0138 20.292L17.1708 21.154C17.3124 21.2582 17.4846 21.3122 17.6603 21.3075C17.836 21.3028 18.0051 21.2396 18.1408 21.128L21.0128 18.755C21.1393 18.6506 21.2292 18.5087 21.2696 18.3497C21.3101 18.1908 21.2989 18.0232 21.2378 17.871L20.4878 16.011L20.4888 16.013ZM10.3808 7.59902C10.7072 7.4373 11.0666 7.35316 11.4308 7.35316C11.7951 7.35316 12.1544 7.4373 12.4808 7.59902L13.2398 7.97502L13.0918 8.12302C12.6495 8.56045 12.0525 8.80579 11.4303 8.80579C10.8082 8.80579 10.2112 8.56045 9.76884 8.12302L9.62185 7.97502L10.3808 7.59902Z" fill="#050505"/>
</svg>
