<svg width="23" height="23" viewBox="0 0 23 23" fill="none" xmlns="http://www.w3.org/2000/svg">
<path fill-rule="evenodd" clip-rule="evenodd" d="M6.91699 3.66802C7.13 2.6301 7.69547 1.69781 8.51748 1.02926C9.33949 0.36072 10.3674 -0.00291874 11.427 2.05635e-05C12.4867 -0.00314991 13.5149 0.360384 14.3371 1.02895C15.1593 1.69751 15.7249 2.62993 15.938 3.66802L16.453 6.21602C16.7222 7.54996 17.2516 8.81778 18.011 9.94702L18.895 11.263C19.4449 12.0787 19.8079 13.0058 19.958 13.978C20.3905 14.0136 20.8046 14.1685 21.1543 14.4253C21.504 14.6822 21.7757 15.031 21.939 15.433L22.689 17.293C22.8718 17.7495 22.9047 18.2523 22.7828 18.7287C22.6609 19.2051 22.3906 19.6304 22.011 19.943L19.14 22.318C18.7328 22.6534 18.225 22.8428 17.6976 22.8561C17.1702 22.8693 16.6535 22.7056 16.23 22.391L15.071 21.531C15.0562 21.5195 15.0415 21.5079 15.027 21.496C14.4465 21.6521 13.8481 21.7311 13.247 21.731H9.60899C8.99399 21.731 8.39699 21.651 7.82899 21.496L7.78399 21.531L6.62699 22.391C6.20346 22.7056 5.68681 22.8693 5.15941 22.8561C4.63201 22.8428 4.12421 22.6534 3.71699 22.318L0.843992 19.945C0.463765 19.632 0.193224 19.2059 0.0716606 18.7287C-0.0499028 18.2514 -0.016161 17.7478 0.167989 17.291L0.917989 15.433C1.08125 15.0312 1.35273 14.6824 1.70227 14.4256C2.0518 14.1687 2.4657 14.0138 2.89799 13.978C3.04872 13.006 3.41165 12.079 3.96099 11.263L4.84399 9.94702C5.60396 8.81787 6.13405 7.55006 6.40399 6.21602L6.91699 3.66802ZM16.524 14.44C16.1982 14.6834 15.9417 15.0078 15.78 15.381L14.61 18.089C14.0074 18.4414 13.322 18.627 12.624 18.627H10.232C9.53396 18.6273 8.84845 18.4416 8.24599 18.089L7.07599 15.381C6.91409 15.0077 6.65724 14.6832 6.33099 14.44C6.37099 13.949 6.50399 13.463 6.73299 13.01L8.64999 9.20802L8.65999 9.21902C9.39682 9.94763 10.3913 10.3563 11.4275 10.3563C12.4637 10.3563 13.4582 9.94763 14.195 9.21902L14.205 9.20902L16.123 13.01C16.351 13.463 16.484 13.949 16.524 14.44ZM13.776 6.50502V4.65702H12.211V5.87702C12.543 5.94402 12.868 6.05602 13.177 6.20902L13.776 6.50502ZM10.645 5.87702V4.65702H9.08099V6.50502L9.68099 6.20902C9.98682 6.05678 10.3102 5.94516 10.645 5.87702ZM3.09699 15.523C2.94098 15.5227 2.78843 15.569 2.6589 15.6559C2.52937 15.7428 2.42877 15.8665 2.36999 16.011L1.61999 17.868C1.55884 18.0203 1.54778 18.188 1.58842 18.347C1.62906 18.5059 1.71927 18.6478 1.84599 18.752L4.71699 21.125C4.85259 21.237 5.02174 21.3003 5.19752 21.305C5.37329 21.3097 5.54558 21.2555 5.68699 21.151L6.84399 20.289C6.98398 20.1855 7.08486 20.0377 7.13025 19.8696C7.17563 19.7015 7.16285 19.5229 7.09399 19.363L5.63699 15.993C5.57624 15.8529 5.47578 15.7336 5.348 15.6499C5.22023 15.5662 5.07074 15.5217 4.91799 15.522H3.09899L3.09699 15.523ZM20.485 16.011C20.4264 15.8666 20.326 15.743 20.1966 15.656C20.0672 15.5691 19.9149 15.5227 19.759 15.523H17.938C17.7852 15.5226 17.6356 15.5668 17.5077 15.6504C17.3798 15.7339 17.2791 15.853 17.218 15.993L15.762 19.363C15.6931 19.5229 15.6804 19.7015 15.7257 19.8696C15.7711 20.0377 15.872 20.1855 16.012 20.289L17.168 21.15C17.3094 21.2543 17.4816 21.3085 17.6573 21.304C17.833 21.2995 18.0021 21.2365 18.138 21.125L21.01 18.752C21.1364 18.6476 21.2263 18.5057 21.2668 18.3467C21.3072 18.1878 21.2961 18.0202 21.235 17.868L20.485 16.009V16.011ZM10.379 7.59802C10.7054 7.4363 11.0647 7.35216 11.429 7.35216C11.7933 7.35216 12.1526 7.4363 12.479 7.59802L13.238 7.97402L13.09 8.12202C12.6478 8.55939 12.0509 8.8047 11.429 8.8047C10.807 8.8047 10.2102 8.55939 9.76799 8.12202L9.61999 7.97402L10.379 7.59802Z" fill="#FAFAFA"/>
</svg>
