<svg width="250" height="251" viewBox="0 0 250 251" fill="none" xmlns="http://www.w3.org/2000/svg">
<path d="M249.557 125.074C249.557 134.603 248.366 144.133 246.579 153.067C244.197 164.978 239.432 175.699 234.072 185.824H15.49C13.7033 182.846 12.5121 180.464 11.3209 177.486C4.17384 162 0.00470838 145.324 0.00470838 126.861V124.478C-0.590881 55.9854 55.3946 0 124.483 0C156.645 0 185.829 11.9118 207.866 32.1619C216.204 39.3089 223.351 47.6472 229.307 57.1766C242.41 76.2355 249.557 100.059 249.557 125.074Z" fill="#F64942"/>
<path d="M249.557 125.074C249.557 134.603 248.366 144.133 246.579 153.067C244.196 164.978 239.432 175.699 234.071 185.824C229.307 194.758 222.755 203.096 216.204 210.243C202.505 207.861 186.424 207.265 155.454 220.368C128.652 231.684 126.865 229.302 98.8725 219.773L75.0489 207.861L55.3945 204.287C52.4165 198.331 50.6298 192.376 49.4386 185.824C48.843 182.846 48.843 179.273 48.843 176.295C48.843 173.317 49.4386 170.934 50.0342 167.956C50.0342 166.765 50.6298 166.17 50.6298 164.978C50.6298 164.383 51.2253 163.192 51.2253 162.596C54.2033 153.662 59.5636 145.324 67.3063 138.177C74.4533 131.625 83.9828 126.861 95.8946 123.883C110.784 121.5 123.887 118.522 134.608 115.544L147.115 111.971C148.902 111.375 150.689 110.78 151.88 110.184C175.108 102.441 188.807 93.5076 197.74 85.1694L198.932 83.9782L205.483 77.4267C213.821 68.4928 219.182 60.7502 229.307 55.3899C242.41 76.2355 249.557 100.059 249.557 125.074Z" fill="#F4CE45"/>
<path d="M207.866 31.5663C199.527 39.9045 189.998 47.0516 179.277 52.4119C176.895 53.6031 173.917 54.7943 171.535 55.9854C170.939 55.9854 170.939 56.581 170.343 56.581C148.902 65.5149 125.079 70.2796 102.446 71.4708C94.1079 72.0664 79.8137 72.0664 63.7328 75.6399H63.1372C56.5857 76.8311 49.4387 79.2134 42.2916 82.1914C29.1886 88.1473 16.0856 97.6767 7.74738 112.566C4.76943 117.927 1.79148 122.692 0.00470838 126.861V124.478C-0.590881 55.9854 55.3946 0 124.483 0C156.645 0 185.829 11.9118 207.866 31.5663Z" fill="#5B95BF"/>
<path d="M246.579 153.067C244.197 164.978 239.432 175.699 234.072 185.824C229.307 194.758 222.755 203.096 216.204 210.243C192.976 235.258 160.218 250.148 124.483 250.148C77.4314 250.148 36.9313 224.537 15.4901 185.824C13.7033 182.846 12.5121 180.464 11.3209 177.486C22.0415 174.508 32.1666 171.53 42.8872 169.147C45.2695 168.552 47.6519 168.552 49.4387 167.956C50.0343 167.956 50.6299 167.956 51.821 167.361H53.6078C58.9681 166.17 64.924 165.574 70.2843 165.574C74.4534 165.574 78.027 164.978 82.1961 164.978H88.7476C108.998 166.765 139.968 176.89 172.13 174.508C176.299 173.912 181.064 173.912 185.233 172.721C186.424 172.721 187.02 172.125 188.211 172.125C188.807 172.125 189.998 171.53 190.593 171.53C192.38 170.934 194.167 170.934 195.358 170.339C197.741 169.743 199.527 169.147 201.91 167.956C203.696 167.361 205.483 166.765 206.674 166.17C222.755 160.214 232.285 155.449 246.579 153.067Z" fill="#EF90A4"/>
<path fill-rule="evenodd" clip-rule="evenodd" d="M125.674 40.5001C129.843 40.5001 133.417 42.8825 135.204 47.0516C135.204 47.6472 135.799 47.6472 135.799 47.6472C135.799 47.6472 136.395 47.6472 136.395 47.0516C138.181 44.6693 141.159 43.4781 144.137 43.4781C145.329 43.4781 145.924 43.4781 147.115 44.0737C151.284 45.2648 154.262 48.8384 154.858 52.4119C154.858 53.0075 155.454 53.0075 156.049 53.0075H156.645C158.432 51.8163 160.814 51.2207 162.601 51.2207C164.387 51.2207 166.174 51.8163 167.961 52.4119C171.535 54.7943 173.321 58.3678 173.321 62.5369C173.321 63.1325 173.917 63.7281 174.512 63.7281H175.108C176.299 63.1325 177.49 63.1325 178.682 63.1325C181.064 63.1325 184.042 64.3237 185.829 66.1105C188.807 69.0884 189.402 73.8532 188.211 77.4267C188.211 78.0223 188.211 78.6179 188.807 78.6179H189.998C193.571 78.6179 197.145 80.4046 198.932 83.9782C201.314 87.5517 200.718 92.3164 198.336 95.2944C197.74 95.89 198.336 96.4856 198.932 96.4856C203.101 97.0812 206.079 100.059 207.27 104.228C208.461 108.397 206.674 112.566 203.696 114.949C203.101 115.544 203.101 116.14 203.696 116.736C207.27 118.522 209.652 122.096 209.652 126.265C209.652 130.434 207.27 134.008 203.101 135.794C202.505 135.794 202.505 136.986 203.101 137.581C206.079 139.964 207.866 144.133 206.674 148.302C205.483 152.471 201.91 155.449 198.336 156.045C197.74 156.045 197.145 157.236 197.74 157.236C200.123 160.214 200.123 164.978 198.336 168.552C196.549 172.125 192.976 173.912 189.402 173.912H188.211C187.615 173.912 187.02 174.508 187.615 175.103C188.807 178.677 188.211 182.846 185.233 185.824C183.446 187.611 180.468 188.802 178.086 188.802C176.895 188.802 175.704 188.802 174.512 188.206H173.917C173.321 188.206 172.726 188.802 172.726 189.398C173.321 193.567 170.939 197.14 167.365 199.523C165.579 200.714 163.792 200.714 162.005 200.714C159.623 200.714 157.836 200.118 156.049 198.927H155.454C154.858 198.927 154.858 199.523 154.262 199.523C153.667 203.692 150.689 206.67 146.52 207.861C145.329 207.861 144.733 208.456 143.542 208.456C140.564 208.456 137.586 207.265 135.204 204.287L134.608 203.692C134.012 203.692 134.012 203.692 134.012 204.287C132.226 207.861 128.652 210.243 124.483 210.243C120.314 210.243 116.74 207.861 114.953 203.692C114.953 203.096 114.358 203.096 114.358 203.096C114.358 203.096 113.762 203.096 113.762 203.692C111.976 206.074 108.998 207.265 106.02 207.265C104.828 207.265 104.233 207.265 103.042 206.67C98.8726 205.479 95.8946 201.905 95.299 198.331C95.299 197.736 94.7034 197.736 94.1078 197.736H93.5123C91.7255 198.927 89.3431 199.523 87.5564 199.523C85.7696 199.523 83.9828 198.927 82.196 198.331C78.6225 195.949 76.8357 192.376 76.8357 188.206C76.8357 187.611 76.2402 187.015 75.6446 187.015H75.049C73.8578 187.611 72.6666 187.611 71.4754 187.611C69.0931 187.611 66.1151 186.42 64.3284 184.633C61.3504 181.655 60.7548 176.89 61.946 173.317C61.946 172.721 61.946 172.125 61.3504 172.125H60.1592C56.5857 172.125 53.0121 170.339 51.2254 166.765C48.843 163.192 49.4386 158.427 51.821 155.449C52.4166 154.853 51.821 154.258 51.2254 154.258C47.0562 153.662 44.0783 150.684 42.8871 146.515C41.6959 142.346 43.4827 138.177 46.4607 135.794C47.0562 135.199 47.0562 134.603 46.4607 134.008C42.8871 132.221 40.5048 128.647 40.5048 124.478C40.5048 120.309 42.8871 116.736 47.0562 114.949C47.6518 114.949 47.6518 113.758 47.0562 113.162C44.0783 110.78 42.2915 106.611 43.4827 102.441C44.6739 98.2723 48.2474 95.2944 51.821 94.6988C52.4166 94.6988 53.0121 93.5076 52.4166 93.5076C50.0342 90.5297 50.0342 85.7649 51.821 82.1914C53.6077 78.6179 57.1813 76.8311 60.7548 76.8311H61.946C62.5416 76.8311 63.1372 76.2355 62.5416 75.6399C61.3504 72.0664 61.946 67.8973 64.9239 64.9193C66.7107 63.1325 69.6887 61.9414 72.071 61.9414C73.2622 61.9414 74.4534 61.9414 75.6446 62.5369H76.2401C76.8357 62.5369 77.4313 61.9414 77.4313 61.3458C77.4313 57.1766 79.2181 53.6031 82.7916 51.2207C84.5784 50.0296 86.3652 50.0296 88.1519 50.0296C90.5343 50.0296 92.3211 50.6251 94.1078 51.8163H94.7034C95.299 51.8163 95.299 51.2207 95.8946 51.2207C96.4902 47.0516 99.4682 44.0737 103.637 42.8825C104.828 42.8825 105.424 42.2869 106.615 42.2869C109.593 42.2869 112.571 43.4781 114.953 46.456L115.549 47.0516C116.145 47.0516 116.145 47.0516 116.145 46.456C117.931 42.8825 121.505 40.5001 125.674 40.5001Z" fill="white"/>
<path fill-rule="evenodd" clip-rule="evenodd" d="M191.785 116.736H188.807C182.851 116.736 178.086 113.162 175.704 108.397C173.321 113.162 168.557 116.736 162.601 116.736C157.836 116.736 154.262 114.353 151.284 111.375C150.689 110.184 150.093 109.589 149.498 108.397C148.902 110.184 147.711 111.375 146.52 113.162C144.137 115.544 140.564 117.331 136.99 117.331C135.799 117.331 135.204 117.331 134.012 116.736C129.248 116.14 125.674 112.566 123.887 108.993C121.505 113.758 116.74 117.331 110.784 117.331C104.828 117.331 100.064 113.758 97.6814 108.993C95.299 113.758 90.5343 117.331 84.5784 117.331C78.6225 117.331 73.8578 113.758 71.4755 108.993C69.0931 113.758 64.3284 117.331 58.3725 117.331H57.1813C52.4166 122.691 55.3945 126.861 67.3063 126.861V153.067C67.3063 157.831 68.4975 162 70.2843 166.17C75.049 175.699 85.174 182.846 97.0858 186.42C105.424 189.398 114.954 190.589 124.483 190.589C134.012 190.589 143.542 189.398 151.88 186.42C159.623 184.037 166.77 179.868 172.13 175.103C178.086 169.147 181.66 162 181.66 153.067V126.861C193.571 126.265 196.549 122.096 191.785 116.736ZM163.196 153.067C172.13 153.067 172.726 166.17 163.196 166.17C154.262 166.17 154.858 153.067 163.196 153.067ZM85.7696 166.17C84.5784 166.17 83.3872 166.17 82.1961 164.978C76.8358 162 78.6225 152.471 85.7696 152.471C93.5123 152.471 94.7035 162.596 88.7476 164.978C87.5564 165.574 86.9608 166.17 85.7696 166.17Z" fill="black"/>
<path fill-rule="evenodd" clip-rule="evenodd" d="M217.99 125.669C217.99 121.5 216.799 117.331 214.417 114.353C215.608 110.184 216.204 106.015 215.013 101.846C213.821 97.6768 211.439 94.1032 208.461 91.7209C209.057 87.5517 207.865 83.3826 206.079 79.2135C204.292 75.6399 200.718 73.2576 197.145 71.4708C196.549 67.3017 194.762 63.1325 191.189 60.1546C188.211 57.1766 184.637 55.3899 180.468 54.7943C180.468 54.1987 179.873 53.6031 179.873 53.0075C178.086 50.0296 175.704 47.0516 172.13 45.2648C169.152 43.4781 165.579 42.2869 162.005 42.2869H160.218C157.836 39.309 153.667 36.331 149.498 35.1398C147.711 34.5442 145.924 34.5442 144.137 34.5442C141.755 34.5442 139.373 35.1398 136.99 35.7354C133.417 33.3531 129.248 31.5663 125.078 31.5663C120.909 31.5663 116.74 32.7575 113.762 35.1398C111.38 33.9486 108.998 33.9486 106.615 33.9486C104.828 33.9486 103.042 33.9486 101.255 34.5442C97.0858 35.7354 93.5122 38.1178 91.1299 41.0957H88.7475C85.174 41.0957 81.6004 42.2869 78.6225 44.0737C75.0489 46.456 72.071 49.434 70.2842 53.0075C66.1151 53.6031 61.946 55.3899 58.968 58.9634C55.9901 61.9414 54.2033 65.5149 53.6077 69.684C50.0342 71.4708 46.4606 74.4488 44.0783 78.0223C42.8871 79.2135 42.2915 81.0002 42.2915 82.787C41.6959 84.5738 41.1003 86.9561 41.6959 89.3385C38.7179 91.7209 35.74 95.89 34.5488 100.059C33.3576 104.228 33.9532 108.397 35.1444 111.971C32.762 115.544 30.9753 119.714 30.9753 123.883C30.9753 128.052 32.1665 132.221 34.5488 135.199C32.762 139.368 32.7621 143.537 33.9532 147.706C35.1444 151.875 37.5268 155.449 40.5047 157.831C39.9091 161.405 40.5047 165.574 42.2915 169.148C42.2915 169.743 42.8871 169.743 42.8871 170.339C44.0783 172.721 45.865 174.508 48.2474 176.295C49.4386 177.486 50.6297 178.081 51.8209 178.677C52.4165 181.059 53.0121 183.442 54.2033 185.824C54.7989 187.611 55.9901 188.802 57.1812 189.993C60.1592 192.971 63.7327 194.758 67.9018 195.353C69.6886 198.927 72.6666 202.501 76.2401 204.883C79.2181 206.67 82.7916 207.861 86.3651 207.861H88.1519C90.5343 211.434 94.7034 213.817 98.8725 215.008C100.659 215.604 102.446 215.604 104.233 215.604C106.615 215.604 108.998 215.008 111.38 214.412C114.953 216.795 119.123 218.581 123.292 218.581C127.461 218.581 131.63 217.39 134.608 215.008C136.99 216.199 139.373 216.199 141.755 216.199C143.542 216.199 145.329 216.199 147.115 215.604C151.284 214.412 154.858 212.03 157.24 209.052H159.623C163.196 209.052 166.77 207.861 169.748 206.074C173.321 204.287 176.299 200.714 178.086 197.14C182.255 196.545 186.424 194.758 189.402 191.184C191.189 189.398 192.38 187.611 192.976 185.824L194.762 180.464C198.336 178.677 201.91 175.699 204.292 172.125C205.483 170.339 206.079 168.552 206.674 166.17C207.27 164.383 207.27 162 207.27 160.214C210.843 157.831 213.226 153.662 214.417 149.493C215.608 145.324 215.013 141.155 213.821 137.581C216.204 134.603 217.99 130.434 217.99 125.669ZM201.314 135.199C200.718 135.795 200.718 136.39 201.314 136.986C204.292 139.368 205.483 143.537 204.888 147.706C203.696 151.875 200.123 154.853 196.549 155.449C195.954 155.449 195.358 156.045 195.954 156.64C198.336 159.618 198.336 163.787 196.549 167.361C195.358 169.743 192.976 170.934 191.189 172.125C190.593 172.125 189.402 172.721 188.807 172.721H187.02C186.424 172.721 186.424 172.721 186.424 173.317V173.912C187.615 177.486 187.02 181.655 184.042 184.633C183.446 185.228 182.851 185.824 181.66 186.42C179.873 187.611 178.086 187.611 176.299 187.611C175.108 187.611 173.917 187.611 172.726 187.015H172.13C171.534 187.015 170.939 187.611 171.534 188.206C171.534 191.78 169.748 195.949 166.174 197.736C164.387 198.927 162.601 198.927 160.814 198.927C158.431 198.927 156.645 198.331 154.858 197.14H154.262C153.667 197.14 153.667 197.736 153.071 197.736C152.476 201.309 149.498 204.883 145.924 206.074C145.329 206.074 144.137 206.67 143.542 206.67C140.564 206.67 137.586 205.479 135.204 202.501L134.608 201.905C134.012 201.905 134.012 201.905 134.012 202.501C132.226 206.074 128.652 208.456 124.483 208.456C120.314 208.456 116.74 206.074 114.953 202.501C114.953 201.905 114.358 201.905 113.762 201.905H113.167C111.38 204.287 108.402 205.479 105.424 205.479C104.828 205.479 103.637 205.479 103.042 204.883C98.8725 203.692 95.8946 200.118 95.299 196.545C95.299 195.949 94.7034 195.949 94.1078 195.949H93.5122C91.7254 197.14 89.9387 197.736 87.5563 197.736C85.7695 197.736 83.9828 197.14 82.196 196.545C78.6225 194.162 76.8357 190.589 77.4313 186.42V185.824L76.8357 185.228H76.2401C75.6445 185.228 75.0489 185.824 74.4533 185.824H71.4754C69.093 185.824 67.3063 184.633 65.5195 182.846C62.5415 179.868 61.9459 175.699 63.1371 171.53C63.1371 170.934 63.1371 170.339 61.946 170.339H61.3504C58.3724 170.339 55.9901 169.148 53.6077 167.361C53.0121 167.361 52.4165 166.765 51.8209 165.574C51.2253 164.383 50.6297 163.787 50.6297 162.596C50.0342 159.618 50.6297 156.64 52.4165 154.258C53.0121 153.662 52.4165 153.067 51.8209 153.067C48.2474 152.471 44.6738 149.493 43.4827 145.92C42.2915 141.75 44.0783 137.581 47.0562 135.199C47.6518 134.603 47.6518 134.008 47.0562 133.412C43.4827 131.625 41.1003 128.052 41.1003 123.883C41.1003 119.714 43.4827 116.14 47.0562 114.353C47.6518 114.353 47.6518 113.162 47.0562 112.566C44.0783 110.184 42.8871 106.015 43.4827 101.846C45.2694 98.2723 48.843 95.89 53.0121 95.2944C53.6077 95.2944 54.2033 94.6988 53.6077 94.1032C51.2253 91.1253 51.2253 86.3605 53.0121 82.787C54.7989 79.8091 58.3724 77.4267 61.946 77.4267H63.1371C63.7327 77.4267 64.3283 76.8311 63.7327 76.2355V75.0443C62.5415 71.4708 63.7327 67.8973 66.1151 64.9193C67.9018 63.1325 70.8798 61.9414 73.2622 61.9414C74.4533 61.9414 75.6445 61.9414 76.8357 62.537H77.4313C78.0269 62.537 78.6225 61.9414 78.0269 61.3458C78.0269 57.1766 79.8136 53.6031 83.3872 51.8163C85.174 50.6252 86.9607 50.6252 88.7475 50.6252C91.1299 50.6252 92.9166 51.2207 94.7034 52.4119H95.299C95.8946 52.4119 95.8946 52.4119 96.4902 51.8163C97.0857 48.2428 100.064 44.6693 103.637 43.4781C104.233 43.4781 105.424 42.8825 106.02 42.8825C108.998 42.8825 111.975 44.0737 114.358 46.456L114.953 47.0516C115.549 47.0516 115.549 47.0516 115.549 46.456C117.336 42.8825 120.909 40.5001 125.078 40.5001C129.248 40.5001 132.821 42.8825 134.608 46.456C134.608 47.0516 135.203 47.0516 135.799 47.0516C135.799 47.0516 136.395 47.0516 136.395 46.456C138.181 44.0737 141.159 42.8825 144.137 42.8825C144.733 42.8825 145.924 42.8825 146.52 43.4781C151.284 45.8604 153.667 49.434 154.262 53.6031C154.262 54.1987 154.858 54.1987 155.454 54.1987H156.049C157.836 53.0075 159.623 52.4119 162.005 52.4119C163.792 52.4119 165.579 53.0075 167.365 53.6031C168.557 54.7943 170.343 55.9855 170.939 57.1766C172.13 58.9634 172.726 61.3458 172.726 63.7281C172.726 64.3237 173.321 64.9193 173.917 64.9193H174.512C175.704 64.3237 176.895 64.3237 178.086 64.3237C180.468 64.3237 183.446 65.5149 185.233 67.3017C188.211 70.2796 188.807 74.4487 187.615 78.6179C187.615 79.2135 187.615 79.8091 188.807 79.8091H189.402C192.976 79.8091 196.549 81.5958 198.336 85.1694C198.932 85.765 198.932 86.3605 199.527 87.5517C200.718 90.5297 199.527 94.1032 197.74 96.4856C197.145 97.0812 197.74 97.6768 198.336 97.6768C202.505 98.2723 205.483 101.25 206.674 104.824C207.865 108.993 206.079 113.162 203.101 115.544C202.505 116.14 202.505 116.736 203.101 117.331C206.674 119.118 209.057 122.692 209.057 126.861C207.865 130.434 204.888 134.008 201.314 135.199Z" fill="black"/>
</svg>
