<svg width="24" height="21" viewBox="0 0 24 21" fill="none" xmlns="http://www.w3.org/2000/svg">
<path d="M24 9.78061C23.9979 9.26063 23.8431 8.75272 23.5548 8.31996C23.2666 7.8872 22.8575 7.54865 22.3785 7.34637C21.8995 7.14409 21.3716 7.08698 20.8604 7.18213C20.3491 7.27728 19.8772 7.52051 19.503 7.88161C17.693 6.69061 15.244 5.93261 12.532 5.83561L14.015 1.16661L18.031 2.10761L18.025 2.16561C18.0269 2.7406 18.2568 3.29136 18.6645 3.69692C19.0721 4.10247 19.624 4.32967 20.199 4.32861C20.7737 4.32914 21.3251 4.10171 21.7322 3.69621C22.1394 3.29071 22.3691 2.74026 22.371 2.16561C22.3697 1.66006 22.1921 1.1708 21.8687 0.782221C21.5453 0.393643 21.0964 0.13011 20.5995 0.037079C20.1026 -0.0559519 19.5888 0.0273526 19.1467 0.272623C18.7047 0.517894 18.3621 0.909752 18.178 1.38061L13.849 0.365605C13.7578 0.34355 13.6615 0.357002 13.5798 0.403236C13.4981 0.449469 13.4371 0.525028 13.409 0.614605L11.755 5.82161C8.917 5.85561 6.346 6.61961 4.455 7.84661C3.96688 7.39042 3.3241 7.13603 2.656 7.13461C1.95315 7.13407 1.27879 7.41236 0.780869 7.90841C0.282945 8.40446 0.0021184 9.07776 0 9.78061C0 10.7506 0.533 11.5916 1.317 12.0516C1.26225 12.3341 1.23347 12.6209 1.231 12.9086C1.231 16.8196 6.039 20.0016 11.95 20.0016C17.861 20.0016 22.67 16.8196 22.67 12.9086C22.67 12.6346 22.641 12.3646 22.595 12.0986C23.0174 11.8759 23.3712 11.5426 23.6187 11.1343C23.8662 10.726 23.998 10.2581 24 9.78061ZM6.776 11.5966C6.776 10.7286 7.486 10.0216 8.358 10.0216C9.23 10.0216 9.939 10.7286 9.939 11.5966C9.939 12.4646 9.23 13.1706 8.358 13.1706C7.486 13.1706 6.776 12.4646 6.776 11.5966ZM15.837 16.2656C15.04 17.0586 13.789 17.4446 12.013 17.4446L12 17.4416L11.987 17.4446C10.21 17.4446 8.959 17.0586 8.163 16.2656C8.12856 16.2313 8.10123 16.1906 8.08259 16.1457C8.06394 16.1008 8.05434 16.0527 8.05434 16.0041C8.05434 15.9555 8.06394 15.9074 8.08259 15.8625C8.10123 15.8176 8.12856 15.7769 8.163 15.7426C8.23276 15.6729 8.32736 15.6337 8.426 15.6337C8.52464 15.6337 8.61924 15.6729 8.689 15.7426C9.339 16.3896 10.418 16.7036 11.987 16.7036L12 16.7066L12.013 16.7036C13.582 16.7036 14.661 16.3886 15.311 15.7416C15.3809 15.6721 15.4754 15.6331 15.574 15.6331C15.6726 15.6331 15.7671 15.6721 15.837 15.7416C15.8715 15.776 15.8988 15.8168 15.9175 15.8618C15.9361 15.9067 15.9457 15.9549 15.9457 16.0036C15.9457 16.0523 15.9361 16.1005 15.9175 16.1454C15.8988 16.1904 15.8715 16.2312 15.837 16.2656ZM15.648 13.1706C15.2298 13.1709 14.8286 13.0053 14.5322 12.7103C14.2359 12.4153 14.0686 12.0148 14.067 11.5966C14.067 10.7286 14.776 10.0216 15.648 10.0216C16.52 10.0216 17.229 10.7286 17.229 11.5966C17.229 12.4646 16.52 13.1706 15.648 13.1706Z" fill="white"/>
</svg>
