<svg width="17" height="17" viewBox="0 0 17 17" fill="none" xmlns="http://www.w3.org/2000/svg">
<path d="M3.94544 10.19L2.75367 15.3507C2.71676 15.5069 2.72784 15.6707 2.78546 15.8206C2.84307 15.9704 2.94454 16.0994 3.07662 16.1907C3.2087 16.282 3.36524 16.3314 3.5258 16.3324C3.68636 16.3333 3.84348 16.2858 3.97663 16.1961L8.3318 13.2926L12.687 16.1961C12.8232 16.2865 12.9839 16.3331 13.1474 16.3295C13.3109 16.3259 13.4694 16.2724 13.6015 16.176C13.7336 16.0797 13.8331 15.9452 13.8865 15.7906C13.94 15.6361 13.9448 15.4688 13.9003 15.3115L12.4374 10.1924L16.0655 6.92747C16.1817 6.82284 16.2647 6.68645 16.3042 6.53516C16.3437 6.38387 16.338 6.22431 16.2878 6.07623C16.2376 5.92815 16.1451 5.79803 16.0217 5.70197C15.8983 5.60591 15.7495 5.54811 15.5936 5.53574L11.0337 5.17261L9.06046 0.80465C8.99754 0.664001 8.89526 0.544568 8.76596 0.460764C8.63666 0.37696 8.48588 0.332367 8.3318 0.332367C8.17772 0.332367 8.02693 0.37696 7.89763 0.460764C7.76833 0.544568 7.66605 0.664001 7.60314 0.80465L5.62991 5.17261L1.06999 5.53494C0.916786 5.54708 0.77032 5.6031 0.648117 5.69629C0.525915 5.78949 0.433149 5.91592 0.380919 6.06046C0.32869 6.205 0.319207 6.36153 0.353606 6.51132C0.388005 6.6611 0.464829 6.79781 0.574888 6.90508L3.94544 10.19ZM6.2274 6.72991C6.37017 6.71866 6.50728 6.66921 6.62437 6.58675C6.74145 6.50428 6.83419 6.39184 6.89287 6.2612L8.3318 3.07701L9.77072 6.2612C9.8294 6.39184 9.92214 6.50428 10.0392 6.58675C10.1563 6.66921 10.2934 6.71866 10.4362 6.72991L13.6132 6.98186L10.9969 9.33661C10.7697 9.54137 10.6793 9.85651 10.7625 10.1509L11.7647 13.6582L8.77651 11.6658C8.64535 11.5777 8.49096 11.5307 8.333 11.5307C8.17503 11.5307 8.02064 11.5777 7.88948 11.6658L4.76688 13.7478L5.60672 10.1117C5.63751 9.97793 5.63338 9.83852 5.59472 9.70685C5.55606 9.57517 5.48417 9.45566 5.38596 9.3598L2.95603 6.99066L6.2274 6.72991Z" fill="#676769"/>
</svg>
