<svg width="18" height="16" viewBox="0 0 18 16" fill="none" xmlns="http://www.w3.org/2000/svg">
<path d="M7.55556 16C8.29194 16 8.88889 15.403 8.88889 14.6667C8.88889 13.9303 8.29194 13.3333 7.55556 13.3333C6.81918 13.3333 6.22222 13.9303 6.22222 14.6667C6.22222 15.403 6.81918 16 7.55556 16Z" fill="#676769"/>
<path d="M13.7778 16C14.5142 16 15.1111 15.403 15.1111 14.6667C15.1111 13.9303 14.5142 13.3333 13.7778 13.3333C13.0414 13.3333 12.4444 13.9303 12.4444 14.6667C12.4444 15.403 13.0414 16 13.7778 16Z" fill="#676769"/>
<path d="M10.6667 9.76889L14.2222 5.32445H11.5556V1.76889H9.77778V5.32445H7.11111L10.6667 9.76889Z" fill="#676769"/>
<path d="M13.6089 10.6667H7.70667L3.71556 1.09334C3.58024 0.768947 3.35179 0.49195 3.0591 0.297347C2.7664 0.102745 2.42259 -0.000728114 2.07111 3.85678e-06H0V1.77778H2.07111L6.29333 11.8933C6.36002 12.0557 6.47326 12.1946 6.61879 12.2927C6.76432 12.3908 6.93562 12.4436 7.11111 12.4444H14.2222C14.4013 12.4439 14.576 12.3893 14.7235 12.2878C14.871 12.1863 14.9844 12.0426 15.0489 11.8756L17.5644 5.33334H15.6622L13.6089 10.6667Z" fill="#676769"/>
</svg>
